<?xml version="1.0" encoding="UTF-8" standalone="no"?>
<svg
   xmlns:dc="http://purl.org/dc/elements/1.1/"
   xmlns:cc="http://creativecommons.org/ns#"
   xmlns:rdf="http://www.w3.org/1999/02/22-rdf-syntax-ns#"
   xmlns:svg="http://www.w3.org/2000/svg"
   xmlns="http://www.w3.org/2000/svg"
   xmlns:sodipodi="http://sodipodi.sourceforge.net/DTD/sodipodi-0.dtd"
   xmlns:inkscape="http://www.inkscape.org/namespaces/inkscape"
   viewBox="0 0 236.319 224.752"
   height="849.458"
   width="893.173"
   version="1.1"
   id="svg823"
   sodipodi:docname="logo.svg"
   inkscape:version="0.92.5 (2060ec1f9f, 2020-04-08)">
  <metadata
     id="metadata829">
    <rdf:RDF>
      <cc:Work
         rdf:about="">
        <dc:format>image/svg+xml</dc:format>
        <dc:type
           rdf:resource="http://purl.org/dc/dcmitype/StillImage" />
        <dc:title></dc:title>
      </cc:Work>
    </rdf:RDF>
  </metadata>
  <defs
     id="defs827" />
  <sodipodi:namedview
     pagecolor="#ffffff"
     bordercolor="#666666"
     borderopacity="1"
     objecttolerance="10"
     gridtolerance="10"
     guidetolerance="10"
     inkscape:pageopacity="0"
     inkscape:pageshadow="2"
     inkscape:window-width="1920"
     inkscape:window-height="1001"
     id="namedview825"
     showgrid="false"
     inkscape:zoom="0.95708086"
     inkscape:cx="446.58649"
     inkscape:cy="424.729"
     inkscape:window-x="0"
     inkscape:window-y="0"
     inkscape:window-maximized="1"
     inkscape:current-layer="text833" />
  <path
     d="M118.16 14.713l32.189 65.222 71.977 10.46-52.083 50.768 12.295 71.686-64.379-33.845-64.378 33.845 12.295-71.686-52.083-50.769L85.97 79.935z"
     fill="none"
     stroke="#ff3e00"
     stroke-width="13.023"
     paint-order="fill markers stroke"
     id="path815" />
  <path
     d="M118.16 75.4l14.353 29.084 32.097 4.663-23.226 22.64 5.483 31.966-28.708-15.093-28.707 15.093 5.482-31.967-23.225-22.639 32.096-4.663z"
     id="path817"
     paint-order="fill markers stroke"
     stroke-width="5.807"
     stroke="#ff3e00"
     fill="#ff3e00" />
  <g
     aria-label="Wolbodo"
     style="font-style:normal;font-weight:normal;font-size:11.92547703px;line-height:1.25;font-family:sans-serif;letter-spacing:0px;word-spacing:0px;fill:#000000;fill-opacity:1;stroke:none;stroke-width:0.29813692"
     id="text833">
    <path
       d="m 47.381567,136.65355 q 0,2.48758 -0.950312,4.69566 -0.922361,2.18012 -2.571431,3.82919 -1.621119,1.62112 -3.829196,2.57144 -2.180126,0.92236 -4.667706,0.92236 -2.236027,0 -4.304352,-0.78261 -2.040375,-0.78261 -3.689445,-2.29193 -1.649069,1.50932 -3.717394,2.29193 -2.068325,0.78261 -4.304352,0.78261 -2.48758,0 -4.695657,-0.92236 -2.180126,-0.95032 -3.829196,-2.57144 -1.6211197,-1.64907 -2.5714312,-3.82919 -0.9223611,-2.20808 -0.9223611,-4.69566 V 108.03241 H 15.35048 v 28.62114 q 0,0.83851 0.307454,1.59317 0.307454,0.72671 0.83851,1.28572 0.559007,0.53105 1.285716,0.83851 0.726709,0.30745 1.565219,0.30745 0.83851,0 1.565219,-0.30745 0.726708,-0.30746 1.257765,-0.83851 0.559006,-0.55901 0.86646,-1.28572 0.307454,-0.75466 0.307454,-1.59317 v -28.62114 h 8.021747 v 28.62114 q 0,0.83851 0.307453,1.59317 0.307454,0.72671 0.83851,1.28572 0.559007,0.53105 1.285716,0.83851 0.726709,0.30745 1.565219,0.30745 0.83851,0 1.565219,-0.30745 0.726708,-0.30746 1.257765,-0.83851 0.559007,-0.55901 0.86646,-1.28572 0.335404,-0.75466 0.335404,-1.59317 v -28.62114 h 7.993797 z"
       style="font-style:normal;font-variant:normal;font-weight:normal;font-stretch:normal;font-size:57.2422905px;font-family:Righteous;-inkscape-font-specification:Righteous;stroke-width:0.29813692"
       id="path900" />
    <path
       d="m 82.263588,132.88026 q 0,3.35404 -1.201865,6.26087 -1.201864,2.87889 -3.270189,5.00311 -2.068325,2.09628 -4.863359,3.32609 -2.767083,1.20187 -5.953422,1.20187 -3.158388,0 -5.953421,-1.20187 -2.767084,-1.22981 -4.863359,-3.32609 -2.068325,-2.12422 -3.27019,-5.00311 -1.201864,-2.90683 -1.201864,-6.26087 0,-3.40995 1.201864,-6.31678 1.201865,-2.90684 3.27019,-5.00311 2.096275,-2.12423 4.863359,-3.32609 2.795033,-1.20187 5.953421,-1.20187 3.186339,0 5.953422,1.14597 2.795034,1.11801 4.863359,3.21429 2.068325,2.06832 3.270189,5.00311 1.201865,2.90683 1.201865,6.48448 z m -7.686343,0 q 0,-1.84473 -0.614907,-3.32609 -0.586957,-1.50932 -1.62112,-2.57144 -1.034162,-1.09006 -2.431679,-1.64907 -1.369567,-0.58695 -2.934786,-0.58695 -1.565219,0 -2.962735,0.58695 -1.369567,0.55901 -2.403729,1.64907 -1.006213,1.06212 -1.59317,2.57144 -0.586957,1.48136 -0.586957,3.32609 0,1.73292 0.586957,3.21428 0.586957,1.48137 1.59317,2.57144 1.034162,1.09006 2.403729,1.73292 1.397516,0.6149 2.962735,0.6149 1.565219,0 2.934786,-0.58695 1.397517,-0.58696 2.431679,-1.64907 1.034163,-1.06212 1.62112,-2.57143 0.614907,-1.50932 0.614907,-3.32609 z"
       style="font-style:normal;font-variant:normal;font-weight:normal;font-stretch:normal;font-size:57.2422905px;font-family:Righteous;-inkscape-font-specification:Righteous;stroke-width:0.29813692"
       id="path902" />
    <path
       d="m 94.170437,148.11319 h -7.686343 v -41.84166 h 7.686343 z"
       style="font-style:normal;font-variant:normal;font-weight:normal;font-stretch:normal;font-size:57.2422905px;font-family:Righteous;-inkscape-font-specification:Righteous;stroke-width:0.29813692"
       id="path904" />
    <path
       d="m 129.94686,132.88026 q 0,3.52174 -1.20186,6.42857 -1.20187,2.90684 -3.27019,5.00311 -2.06833,2.06833 -4.86336,3.21429 -2.76708,1.14597 -5.95342,1.14597 -3.15839,0 -5.95342,-1.17392 -2.76709,-1.17391 -4.86336,-3.27019 -2.06833,-2.09627 -3.27019,-4.97516 -1.201866,-2.90683 -1.201866,-6.37267 v -26.60873 h 7.658396 v 13.97517 q 0.6149,-0.78261 1.48136,-1.39751 0.89442,-0.61491 1.90063,-1.00622 1.03416,-0.3913 2.12422,-0.58695 1.09007,-0.22361 2.12423,-0.22361 3.18634,0 5.95342,1.20187 2.79503,1.17391 4.86336,3.29814 2.06832,2.12422 3.27019,5.03106 1.20186,2.87888 1.20186,6.31678 z m -7.68634,0 q 0,-1.73292 -0.61491,-3.21429 -0.58695,-1.50932 -1.62112,-2.59938 -1.03416,-1.09007 -2.43168,-1.70497 -1.36956,-0.61491 -2.93478,-0.61491 -1.56522,0 -2.96274,0.69876 -1.36956,0.6708 -2.40373,1.81677 -1.03416,1.11801 -1.62112,2.59938 -0.58695,1.45342 -0.58695,3.01864 0,1.73292 0.58695,3.21428 0.58696,1.48137 1.62112,2.57144 1.03417,1.09006 2.40373,1.73292 1.39752,0.6149 2.96274,0.6149 1.56522,0 2.93478,-0.6149 1.39752,-0.64286 2.43168,-1.73292 1.03417,-1.09007 1.62112,-2.57144 0.61491,-1.48136 0.61491,-3.21428 z"
       style="font-style:normal;font-variant:normal;font-weight:normal;font-stretch:normal;font-size:57.2422905px;font-family:Righteous;-inkscape-font-specification:Righteous;stroke-width:0.29813692"
       id="path906" />
    <path
       d="m 163.09597,132.88026 q 0,3.35404 -1.20187,6.26087 -1.20186,2.87889 -3.27019,5.00311 -2.06832,2.09628 -4.86336,3.32609 -2.76708,1.20187 -5.95342,1.20187 -3.15839,0 -5.95342,-1.20187 -2.76708,-1.22981 -4.86336,-3.32609 -2.06832,-2.12422 -3.27019,-5.00311 -1.20186,-2.90683 -1.20186,-6.26087 0,-3.40995 1.20186,-6.31678 1.20187,-2.90684 3.27019,-5.00311 2.09628,-2.12423 4.86336,-3.32609 2.79503,-1.20187 5.95342,-1.20187 3.18634,0 5.95342,1.14597 2.79504,1.11801 4.86336,3.21429 2.06833,2.06832 3.27019,5.00311 1.20187,2.90683 1.20187,6.48448 z m -7.68635,0 q 0,-1.84473 -0.6149,-3.32609 -0.58696,-1.50932 -1.62112,-2.57144 -1.03417,-1.09006 -2.43168,-1.64907 -1.36957,-0.58695 -2.93479,-0.58695 -1.56522,0 -2.96273,0.58695 -1.36957,0.55901 -2.40373,1.64907 -1.00622,1.06212 -1.59317,2.57144 -0.58696,1.48136 -0.58696,3.32609 0,1.73292 0.58696,3.21428 0.58695,1.48137 1.59317,2.57144 1.03416,1.09006 2.40373,1.73292 1.39751,0.6149 2.96273,0.6149 1.56522,0 2.93479,-0.58695 1.39751,-0.58696 2.43168,-1.64907 1.03416,-1.06212 1.62112,-2.57143 0.6149,-1.50932 0.6149,-3.32609 z"
       style="font-style:normal;font-variant:normal;font-weight:normal;font-stretch:normal;font-size:57.2422905px;font-family:Righteous;-inkscape-font-specification:Righteous;stroke-width:0.29813692"
       id="path908" />
    <path
       d="m 196.24506,148.11319 h -1.84472 l -2.96274,-4.1087 q -1.09006,0.97826 -2.31988,1.84472 -1.20186,0.83851 -2.54348,1.48137 -1.34161,0.61491 -2.76708,0.97826 -1.39752,0.36336 -2.85093,0.36336 -3.15839,0 -5.95343,-1.17392 -2.76708,-1.20186 -4.86336,-3.29814 -2.06832,-2.12422 -3.27018,-5.00311 -1.20187,-2.90683 -1.20187,-6.31677 0,-3.38199 1.20187,-6.28883 1.20186,-2.90683 3.27018,-5.03106 2.09628,-2.12423 4.86336,-3.32609 2.79504,-1.20187 5.95343,-1.20187 1.00621,0 2.06832,0.16771 1.09006,0.1677 2.09628,0.559 1.03416,0.36336 1.92857,0.97827 0.89441,0.6149 1.50932,1.50931 v -13.97517 h 7.68634 z m -7.68634,-15.23293 q 0,-1.56522 -0.61491,-3.01864 -0.58696,-1.48137 -1.62112,-2.59938 -1.03416,-1.14597 -2.43168,-1.81677 -1.36957,-0.69876 -2.93478,-0.69876 -1.56522,0 -2.96274,0.559 -1.36957,0.55901 -2.40373,1.62112 -1.00621,1.03417 -1.59317,2.54348 -0.58696,1.50932 -0.58696,3.40995 0,1.64907 0.58696,3.13043 0.58696,1.48137 1.59317,2.59939 1.03416,1.11801 2.40373,1.76087 1.39752,0.64285 2.96274,0.64285 1.56521,0 2.93478,-0.6708 1.39752,-0.69876 2.43168,-1.81678 1.03416,-1.14596 1.62112,-2.59938 0.61491,-1.48137 0.61491,-3.04658 z"
       style="font-style:normal;font-variant:normal;font-weight:normal;font-stretch:normal;font-size:57.2422905px;font-family:Righteous;-inkscape-font-specification:Righteous;stroke-width:0.29813692"
       id="path910" />
    <path
       d="m 230.98734,132.88026 q 0,3.35404 -1.20187,6.26087 -1.20186,2.87889 -3.27019,5.00311 -2.06832,2.09628 -4.86335,3.32609 -2.76709,1.20187 -5.95343,1.20187 -3.15838,0 -5.95342,-1.20187 -2.76708,-1.22981 -4.86336,-3.32609 -2.06832,-2.12422 -3.27019,-5.00311 -1.20186,-2.90683 -1.20186,-6.26087 0,-3.40995 1.20186,-6.31678 1.20187,-2.90684 3.27019,-5.00311 2.09628,-2.12423 4.86336,-3.32609 2.79504,-1.20187 5.95342,-1.20187 3.18634,0 5.95343,1.14597 2.79503,1.11801 4.86335,3.21429 2.06833,2.06832 3.27019,5.00311 1.20187,2.90683 1.20187,6.48448 z m -7.68634,0 q 0,-1.84473 -0.61491,-3.32609 -0.58696,-1.50932 -1.62112,-2.57144 -1.03416,-1.09006 -2.43168,-1.64907 -1.36957,-0.58695 -2.93479,-0.58695 -1.56521,0 -2.96273,0.58695 -1.36957,0.55901 -2.40373,1.64907 -1.00621,1.06212 -1.59317,2.57144 -0.58696,1.48136 -0.58696,3.32609 0,1.73292 0.58696,3.21428 0.58696,1.48137 1.59317,2.57144 1.03416,1.09006 2.40373,1.73292 1.39752,0.6149 2.96273,0.6149 1.56522,0 2.93479,-0.58695 1.39752,-0.58696 2.43168,-1.64907 1.03416,-1.06212 1.62112,-2.57143 0.61491,-1.50932 0.61491,-3.32609 z"
       style="font-style:normal;font-variant:normal;font-weight:normal;font-stretch:normal;font-size:57.2422905px;font-family:Righteous;-inkscape-font-specification:Righteous;stroke-width:0.29813692"
       id="path912" />
  </g>
</svg>
