<?xml version="1.0" encoding="utf-8"?>
<svg width="39px" height="39px" viewbox="0 0 39 39" version="1.1" xmlns:xlink="http://www.w3.org/1999/xlink" xmlns="http://www.w3.org/2000/svg">
  <defs>
    <rect width="39" height="39" id="artboard_1" />
    <clipPath id="clip_1">
      <use xlink:href="#artboard_1" clip-rule="evenodd" />
    </clipPath>
  </defs>
  <g id="SpaceInvader" clip-path="url(#clip_1)">
    <path d="M0 0L1 0L1 3L0 3L0 0Z" transform="translate(1 6)" id="Rectangle" fill="#ff0088" fill-rule="evenodd" stroke="none" />
    <path d="M0 0L1 0L1 3L0 3L0 0Z" transform="translate(11 6)" id="Rectangle-Copy" fill="#ff0088" fill-rule="evenodd" stroke="none" />
    <path d="M0 0L1 0L1 2L0 2L0 0Z" transform="translate(2 5)" id="Rectangle-2" fill="#ff0088" fill-rule="evenodd" stroke="none" />
    <path d="M0 0L1 0L1 2L0 2L0 0Z" transform="translate(10 5)" id="Rectangle-2-Copy" fill="#ff0088" fill-rule="evenodd" stroke="none" />
    <path d="M0 0L1 0L1 5L0 5L0 0Z" transform="translate(3 4)" id="Rectangle-3" fill="#ff0088" fill-rule="evenodd" stroke="none" />
    <path d="M0 0L1 0L1 2L0 2L0 0Z" transform="translate(4 3)" id="Rectangle-4" fill="#ff0088" fill-rule="evenodd" stroke="none" />
    <path d="M0 0L1 0L1 1L0 1L0 0Z" transform="translate(3 2)" id="Rectangle-5" fill="#ff0088" fill-rule="evenodd" stroke="none" />
    <path d="M0 0L1 0L1 1L0 1L0 0Z" transform="translate(9 2)" id="Rectangle-5-Copy" fill="#ff0088" fill-rule="evenodd" stroke="none" />
    <path d="M0 0L1 0L1 4L0 4L0 0Z" transform="translate(5 4)" id="Rectangle-6" fill="#ff0088" fill-rule="evenodd" stroke="none" />
    <path d="M0 0L1 0L1 2L0 2L0 0Z" transform="translate(4 6)" id="Rectangle-7" fill="#ff0088" fill-rule="evenodd" stroke="none" />
    <path d="M0 0L1 0L1 4L0 4L0 0Z" transform="translate(6 4)" id="Rectangle-8" fill="#ff0088" fill-rule="evenodd" stroke="none" />
    <path d="M0 0L2 0L2 1L0 1L0 0Z" transform="translate(4 9)" id="Rectangle-9" fill="#ff0088" fill-rule="evenodd" stroke="none" />
    <path d="M0 0L2 0L2 1L0 1L0 0Z" transform="translate(7 9)" id="Rectangle-9-Copy" fill="#ff0088" fill-rule="evenodd" stroke="none" />
    <path d="M0 0L1 0L1 4L0 4L0 0Z" transform="translate(7 4)" id="Rectangle-10" fill="#ff0088" fill-rule="evenodd" stroke="none" />
    <path d="M0 0L1 0L1 5L0 5L0 0Z" transform="translate(9 4)" id="Rectangle-10-Copy" fill="#ff0088" fill-rule="evenodd" stroke="none" />
    <path d="M0 0L1 0L1 2L0 2L0 0Z" transform="translate(8 3)" id="Rectangle-11" fill="#ff0088" fill-rule="evenodd" stroke="none" />
    <path d="M0 0L1 0L1 2L0 2L0 0Z" transform="translate(8 6)" id="Rectangle-11-Copy" fill="#ff0088" fill-rule="evenodd" stroke="none" />
    <path d="M0 0L1 0L1 3L0 3L0 0Z" transform="translate(1 19)" id="Rectangle-Copy-6" fill="#ff0088" fill-rule="evenodd" stroke="none" />
    <path d="M0 0L1 0L1 3L0 3L0 0Z" transform="translate(11 19)" id="Rectangle-Copy-7" fill="#ff0088" fill-rule="evenodd" stroke="none" />
    <path d="M0 0L1 0L1 2L0 2L0 0Z" transform="translate(2 18)" id="Rectangle-2-Copy-6" fill="#ff0088" fill-rule="evenodd" stroke="none" />
    <path d="M0 0L1 0L1 2L0 2L0 0Z" transform="translate(10 18)" id="Rectangle-2-Copy-7" fill="#ff0088" fill-rule="evenodd" stroke="none" />
    <path d="M0 0L1 0L1 5L0 5L0 0Z" transform="translate(3 17)" id="Rectangle-3-Copy-3" fill="#ff0088" fill-rule="evenodd" stroke="none" />
    <path d="M0 0L1 0L1 2L0 2L0 0Z" transform="translate(4 16)" id="Rectangle-4-Copy-3" fill="#ff0088" fill-rule="evenodd" stroke="none" />
    <path d="M0 0L1 0L1 1L0 1L0 0Z" transform="translate(3 15)" id="Rectangle-5-Copy-6" fill="#ff0088" fill-rule="evenodd" stroke="none" />
    <path d="M0 0L1 0L1 1L0 1L0 0Z" transform="translate(9 15)" id="Rectangle-5-Copy-7" fill="#ff0088" fill-rule="evenodd" stroke="none" />
    <path d="M0 0L1 0L1 4L0 4L0 0Z" transform="translate(5 17)" id="Rectangle-6-Copy-3" fill="#ff0088" fill-rule="evenodd" stroke="none" />
    <path d="M0 0L1 0L1 2L0 2L0 0Z" transform="translate(4 19)" id="Rectangle-7-Copy-3" fill="#ff0088" fill-rule="evenodd" stroke="none" />
    <path d="M0 0L1 0L1 4L0 4L0 0Z" transform="translate(6 17)" id="Rectangle-8-Copy-3" fill="#ff0088" fill-rule="evenodd" stroke="none" />
    <path d="M0 0L2 0L2 1L0 1L0 0Z" transform="translate(4 22)" id="Rectangle-9-Copy-6" fill="#ff0088" fill-rule="evenodd" stroke="none" />
    <path d="M0 0L2 0L2 1L0 1L0 0Z" transform="translate(7 22)" id="Rectangle-9-Copy-7" fill="#ff0088" fill-rule="evenodd" stroke="none" />
    <path d="M0 0L1 0L1 4L0 4L0 0Z" transform="translate(7 17)" id="Rectangle-10-Copy-6" fill="#ff0088" fill-rule="evenodd" stroke="none" />
    <path d="M0 0L1 0L1 5L0 5L0 0Z" transform="translate(9 17)" id="Rectangle-10-Copy-7" fill="#ff0088" fill-rule="evenodd" stroke="none" />
    <path d="M0 0L1 0L1 2L0 2L0 0Z" transform="translate(8 16)" id="Rectangle-11-Copy-6" fill="#ff0088" fill-rule="evenodd" stroke="none" />
    <path d="M0 0L1 0L1 2L0 2L0 0Z" transform="translate(8 19)" id="Rectangle-11-Copy-7" fill="#ff0088" fill-rule="evenodd" stroke="none" />
    <path d="M0 0L1 0L1 3L0 3L0 0Z" transform="translate(1 32)" id="Rectangle-Copy-8" fill="#ff0088" fill-rule="evenodd" stroke="none" />
    <path d="M0 0L1 0L1 3L0 3L0 0Z" transform="translate(11 32)" id="Rectangle-Copy-9" fill="#ff0088" fill-rule="evenodd" stroke="none" />
    <path d="M0 0L1 0L1 2L0 2L0 0Z" transform="translate(2 31)" id="Rectangle-2-Copy-8" fill="#ff0088" fill-rule="evenodd" stroke="none" />
    <path d="M0 0L1 0L1 2L0 2L0 0Z" transform="translate(10 31)" id="Rectangle-2-Copy-9" fill="#ff0088" fill-rule="evenodd" stroke="none" />
    <path d="M0 0L1 0L1 5L0 5L0 0Z" transform="translate(3 30)" id="Rectangle-3-Copy-4" fill="#ff0088" fill-rule="evenodd" stroke="none" />
    <path d="M0 0L1 0L1 2L0 2L0 0Z" transform="translate(4 29)" id="Rectangle-4-Copy-4" fill="#ff0088" fill-rule="evenodd" stroke="none" />
    <path d="M0 0L1 0L1 1L0 1L0 0Z" transform="translate(3 28)" id="Rectangle-5-Copy-8" fill="#ff0088" fill-rule="evenodd" stroke="none" />
    <path d="M0 0L1 0L1 1L0 1L0 0Z" transform="translate(9 28)" id="Rectangle-5-Copy-9" fill="#ff0088" fill-rule="evenodd" stroke="none" />
    <path d="M0 0L1 0L1 4L0 4L0 0Z" transform="translate(5 30)" id="Rectangle-6-Copy-4" fill="#ff0088" fill-rule="evenodd" stroke="none" />
    <path d="M0 0L1 0L1 2L0 2L0 0Z" transform="translate(4 32)" id="Rectangle-7-Copy-4" fill="#ff0088" fill-rule="evenodd" stroke="none" />
    <path d="M0 0L1 0L1 4L0 4L0 0Z" transform="translate(6 30)" id="Rectangle-8-Copy-4" fill="#ff0088" fill-rule="evenodd" stroke="none" />
    <path d="M0 0L2 0L2 1L0 1L0 0Z" transform="translate(4 35)" id="Rectangle-9-Copy-8" fill="#ff0088" fill-rule="evenodd" stroke="none" />
    <path d="M0 0L2 0L2 1L0 1L0 0Z" transform="translate(7 35)" id="Rectangle-9-Copy-9" fill="#ff0088" fill-rule="evenodd" stroke="none" />
    <path d="M0 0L1 0L1 4L0 4L0 0Z" transform="translate(7 30)" id="Rectangle-10-Copy-8" fill="#ff0088" fill-rule="evenodd" stroke="none" />
    <path d="M0 0L1 0L1 5L0 5L0 0Z" transform="translate(9 30)" id="Rectangle-10-Copy-9" fill="#ff0088" fill-rule="evenodd" stroke="none" />
    <path d="M0 0L1 0L1 2L0 2L0 0Z" transform="translate(8 29)" id="Rectangle-11-Copy-8" fill="#ff0088" fill-rule="evenodd" stroke="none" />
    <path d="M0 0L1 0L1 2L0 2L0 0Z" transform="translate(8 32)" id="Rectangle-11-Copy-9" fill="#ff0088" fill-rule="evenodd" stroke="none" />
    <path d="M0 0L1 0L1 3L0 3L0 0Z" transform="translate(14 32)" id="Rectangle-Copy-10" fill="#ff0088" fill-rule="evenodd" stroke="none" />
    <path d="M0 0L1 0L1 3L0 3L0 0Z" transform="translate(24 32)" id="Rectangle-Copy-11" fill="#ff0088" fill-rule="evenodd" stroke="none" />
    <path d="M0 0L1 0L1 2L0 2L0 0Z" transform="translate(15 31)" id="Rectangle-2-Copy-10" fill="#ff0088" fill-rule="evenodd" stroke="none" />
    <path d="M0 0L1 0L1 2L0 2L0 0Z" transform="translate(23 31)" id="Rectangle-2-Copy-11" fill="#ff0088" fill-rule="evenodd" stroke="none" />
    <path d="M0 0L1 0L1 5L0 5L0 0Z" transform="translate(16 30)" id="Rectangle-3-Copy-5" fill="#ff0088" fill-rule="evenodd" stroke="none" />
    <path d="M0 0L1 0L1 2L0 2L0 0Z" transform="translate(17 29)" id="Rectangle-4-Copy-5" fill="#ff0088" fill-rule="evenodd" stroke="none" />
    <path d="M0 0L1 0L1 1L0 1L0 0Z" transform="translate(16 28)" id="Rectangle-5-Copy-10" fill="#ff0088" fill-rule="evenodd" stroke="none" />
    <path d="M0 0L1 0L1 1L0 1L0 0Z" transform="translate(22 28)" id="Rectangle-5-Copy-11" fill="#ff0088" fill-rule="evenodd" stroke="none" />
    <path d="M0 0L1 0L1 4L0 4L0 0Z" transform="translate(18 30)" id="Rectangle-6-Copy-5" fill="#ff0088" fill-rule="evenodd" stroke="none" />
    <path d="M0 0L1 0L1 2L0 2L0 0Z" transform="translate(17 32)" id="Rectangle-7-Copy-5" fill="#ff0088" fill-rule="evenodd" stroke="none" />
    <path d="M0 0L1 0L1 4L0 4L0 0Z" transform="translate(19 30)" id="Rectangle-8-Copy-5" fill="#ff0088" fill-rule="evenodd" stroke="none" />
    <path d="M0 0L2 0L2 1L0 1L0 0Z" transform="translate(17 35)" id="Rectangle-9-Copy-10" fill="#ff0088" fill-rule="evenodd" stroke="none" />
    <path d="M0 0L2 0L2 1L0 1L0 0Z" transform="translate(20 35)" id="Rectangle-9-Copy-11" fill="#ff0088" fill-rule="evenodd" stroke="none" />
    <path d="M0 0L1 0L1 4L0 4L0 0Z" transform="translate(20 30)" id="Rectangle-10-Copy-10" fill="#ff0088" fill-rule="evenodd" stroke="none" />
    <path d="M0 0L1 0L1 5L0 5L0 0Z" transform="translate(22 30)" id="Rectangle-10-Copy-11" fill="#ff0088" fill-rule="evenodd" stroke="none" />
    <path d="M0 0L1 0L1 2L0 2L0 0Z" transform="translate(21 29)" id="Rectangle-11-Copy-10" fill="#ff0088" fill-rule="evenodd" stroke="none" />
    <path d="M0 0L1 0L1 2L0 2L0 0Z" transform="translate(21 32)" id="Rectangle-11-Copy-11" fill="#ff0088" fill-rule="evenodd" stroke="none" />
    <path d="M0 0L1 0L1 3L0 3L0 0Z" transform="translate(27 32)" id="Rectangle-Copy-12" fill="#ff0088" fill-rule="evenodd" stroke="none" />
    <path d="M0 0L1 0L1 3L0 3L0 0Z" transform="translate(37 32)" id="Rectangle-Copy-13" fill="#ff0088" fill-rule="evenodd" stroke="none" />
    <path d="M0 0L1 0L1 2L0 2L0 0Z" transform="translate(28 31)" id="Rectangle-2-Copy-12" fill="#ff0088" fill-rule="evenodd" stroke="none" />
    <path d="M0 0L1 0L1 2L0 2L0 0Z" transform="translate(36 31)" id="Rectangle-2-Copy-13" fill="#ff0088" fill-rule="evenodd" stroke="none" />
    <path d="M0 0L1 0L1 5L0 5L0 0Z" transform="translate(29 30)" id="Rectangle-3-Copy-6" fill="#ff0088" fill-rule="evenodd" stroke="none" />
    <path d="M0 0L1 0L1 2L0 2L0 0Z" transform="translate(30 29)" id="Rectangle-4-Copy-6" fill="#ff0088" fill-rule="evenodd" stroke="none" />
    <path d="M0 0L1 0L1 1L0 1L0 0Z" transform="translate(29 28)" id="Rectangle-5-Copy-12" fill="#ff0088" fill-rule="evenodd" stroke="none" />
    <path d="M0 0L1 0L1 1L0 1L0 0Z" transform="translate(35 28)" id="Rectangle-5-Copy-13" fill="#ff0088" fill-rule="evenodd" stroke="none" />
    <path d="M0 0L1 0L1 4L0 4L0 0Z" transform="translate(31 30)" id="Rectangle-6-Copy-6" fill="#ff0088" fill-rule="evenodd" stroke="none" />
    <path d="M0 0L1 0L1 2L0 2L0 0Z" transform="translate(30 32)" id="Rectangle-7-Copy-6" fill="#ff0088" fill-rule="evenodd" stroke="none" />
    <path d="M0 0L1 0L1 4L0 4L0 0Z" transform="translate(32 30)" id="Rectangle-8-Copy-6" fill="#ff0088" fill-rule="evenodd" stroke="none" />
    <path d="M0 0L2 0L2 1L0 1L0 0Z" transform="translate(30 35)" id="Rectangle-9-Copy-12" fill="#ff0088" fill-rule="evenodd" stroke="none" />
    <path d="M0 0L2 0L2 1L0 1L0 0Z" transform="translate(33 35)" id="Rectangle-9-Copy-13" fill="#ff0088" fill-rule="evenodd" stroke="none" />
    <path d="M0 0L1 0L1 4L0 4L0 0Z" transform="translate(33 30)" id="Rectangle-10-Copy-12" fill="#ff0088" fill-rule="evenodd" stroke="none" />
    <path d="M0 0L1 0L1 5L0 5L0 0Z" transform="translate(35 30)" id="Rectangle-10-Copy-13" fill="#ff0088" fill-rule="evenodd" stroke="none" />
    <path d="M0 0L1 0L1 2L0 2L0 0Z" transform="translate(34 29)" id="Rectangle-11-Copy-12" fill="#ff0088" fill-rule="evenodd" stroke="none" />
    <path d="M0 0L1 0L1 2L0 2L0 0Z" transform="translate(34 32)" id="Rectangle-11-Copy-13" fill="#ff0088" fill-rule="evenodd" stroke="none" />
    <path d="M0 0L1 0L1 3L0 3L0 0Z" transform="translate(27 19)" id="Rectangle-Copy-14" fill="#ff0088" fill-rule="evenodd" stroke="none" />
    <path d="M0 0L1 0L1 3L0 3L0 0Z" transform="translate(37 19)" id="Rectangle-Copy-15" fill="#ff0088" fill-rule="evenodd" stroke="none" />
    <path d="M0 0L1 0L1 2L0 2L0 0Z" transform="translate(28 18)" id="Rectangle-2-Copy-14" fill="#ff0088" fill-rule="evenodd" stroke="none" />
    <path d="M0 0L1 0L1 2L0 2L0 0Z" transform="translate(36 18)" id="Rectangle-2-Copy-15" fill="#ff0088" fill-rule="evenodd" stroke="none" />
    <path d="M0 0L1 0L1 5L0 5L0 0Z" transform="translate(29 17)" id="Rectangle-3-Copy-7" fill="#ff0088" fill-rule="evenodd" stroke="none" />
    <path d="M0 0L1 0L1 2L0 2L0 0Z" transform="translate(30 16)" id="Rectangle-4-Copy-7" fill="#ff0088" fill-rule="evenodd" stroke="none" />
    <path d="M0 0L1 0L1 1L0 1L0 0Z" transform="translate(29 15)" id="Rectangle-5-Copy-14" fill="#ff0088" fill-rule="evenodd" stroke="none" />
    <path d="M0 0L1 0L1 1L0 1L0 0Z" transform="translate(35 15)" id="Rectangle-5-Copy-15" fill="#ff0088" fill-rule="evenodd" stroke="none" />
    <path d="M0 0L1 0L1 4L0 4L0 0Z" transform="translate(31 17)" id="Rectangle-6-Copy-7" fill="#ff0088" fill-rule="evenodd" stroke="none" />
    <path d="M0 0L1 0L1 2L0 2L0 0Z" transform="translate(30 19)" id="Rectangle-7-Copy-7" fill="#ff0088" fill-rule="evenodd" stroke="none" />
    <path d="M0 0L1 0L1 4L0 4L0 0Z" transform="translate(32 17)" id="Rectangle-8-Copy-7" fill="#ff0088" fill-rule="evenodd" stroke="none" />
    <path d="M0 0L2 0L2 1L0 1L0 0Z" transform="translate(30 22)" id="Rectangle-9-Copy-14" fill="#ff0088" fill-rule="evenodd" stroke="none" />
    <path d="M0 0L2 0L2 1L0 1L0 0Z" transform="translate(33 22)" id="Rectangle-9-Copy-15" fill="#ff0088" fill-rule="evenodd" stroke="none" />
    <path d="M0 0L1 0L1 4L0 4L0 0Z" transform="translate(33 17)" id="Rectangle-10-Copy-14" fill="#ff0088" fill-rule="evenodd" stroke="none" />
    <path d="M0 0L1 0L1 5L0 5L0 0Z" transform="translate(35 17)" id="Rectangle-10-Copy-15" fill="#ff0088" fill-rule="evenodd" stroke="none" />
    <path d="M0 0L1 0L1 2L0 2L0 0Z" transform="translate(34 16)" id="Rectangle-11-Copy-14" fill="#ff0088" fill-rule="evenodd" stroke="none" />
    <path d="M0 0L1 0L1 2L0 2L0 0Z" transform="translate(34 19)" id="Rectangle-11-Copy-15" fill="#ff0088" fill-rule="evenodd" stroke="none" />
    <path d="M0 0L1 0L1 3L0 3L0 0Z" transform="translate(14 6)" id="Rectangle-Copy-2" fill="#ff0088" fill-rule="evenodd" stroke="none" />
    <path d="M0 0L1 0L1 3L0 3L0 0Z" transform="translate(24 6)" id="Rectangle-Copy-3" fill="#ff0088" fill-rule="evenodd" stroke="none" />
    <path d="M0 0L1 0L1 2L0 2L0 0Z" transform="translate(15 5)" id="Rectangle-2-Copy-2" fill="#ff0088" fill-rule="evenodd" stroke="none" />
    <path d="M0 0L1 0L1 2L0 2L0 0Z" transform="translate(23 5)" id="Rectangle-2-Copy-3" fill="#ff0088" fill-rule="evenodd" stroke="none" />
    <path d="M0 0L1 0L1 5L0 5L0 0Z" transform="translate(16 4)" id="Rectangle-3-Copy" fill="#ff0088" fill-rule="evenodd" stroke="none" />
    <path d="M0 0L1 0L1 2L0 2L0 0Z" transform="translate(17 3)" id="Rectangle-4-Copy" fill="#ff0088" fill-rule="evenodd" stroke="none" />
    <path d="M0 0L1 0L1 1L0 1L0 0Z" transform="translate(16 2)" id="Rectangle-5-Copy-2" fill="#ff0088" fill-rule="evenodd" stroke="none" />
    <path d="M0 0L1 0L1 1L0 1L0 0Z" transform="translate(22 2)" id="Rectangle-5-Copy-3" fill="#ff0088" fill-rule="evenodd" stroke="none" />
    <path d="M0 0L1 0L1 4L0 4L0 0Z" transform="translate(18 4)" id="Rectangle-6-Copy" fill="#ff0088" fill-rule="evenodd" stroke="none" />
    <path d="M0 0L1 0L1 2L0 2L0 0Z" transform="translate(17 6)" id="Rectangle-7-Copy" fill="#ff0088" fill-rule="evenodd" stroke="none" />
    <path d="M0 0L1 0L1 4L0 4L0 0Z" transform="translate(19 4)" id="Rectangle-8-Copy" fill="#ff0088" fill-rule="evenodd" stroke="none" />
    <path d="M0 0L2 0L2 1L0 1L0 0Z" transform="translate(17 9)" id="Rectangle-9-Copy-2" fill="#ff0088" fill-rule="evenodd" stroke="none" />
    <path d="M0 0L2 0L2 1L0 1L0 0Z" transform="translate(20 9)" id="Rectangle-9-Copy-3" fill="#ff0088" fill-rule="evenodd" stroke="none" />
    <path d="M0 0L1 0L1 4L0 4L0 0Z" transform="translate(20 4)" id="Rectangle-10-Copy-2" fill="#ff0088" fill-rule="evenodd" stroke="none" />
    <path d="M0 0L1 0L1 5L0 5L0 0Z" transform="translate(22 4)" id="Rectangle-10-Copy-3" fill="#ff0088" fill-rule="evenodd" stroke="none" />
    <path d="M0 0L1 0L1 2L0 2L0 0Z" transform="translate(21 3)" id="Rectangle-11-Copy-2" fill="#ff0088" fill-rule="evenodd" stroke="none" />
    <path d="M0 0L1 0L1 2L0 2L0 0Z" transform="translate(21 6)" id="Rectangle-11-Copy-3" fill="#ff0088" fill-rule="evenodd" stroke="none" />
    <path d="M0 0L1 0L1 3L0 3L0 0Z" transform="translate(27 6)" id="Rectangle-Copy-4" fill="#ff0088" fill-rule="evenodd" stroke="none" />
    <path d="M0 0L1 0L1 3L0 3L0 0Z" transform="translate(37 6)" id="Rectangle-Copy-5" fill="#ff0088" fill-rule="evenodd" stroke="none" />
    <path d="M0 0L1 0L1 2L0 2L0 0Z" transform="translate(28 5)" id="Rectangle-2-Copy-4" fill="#ff0088" fill-rule="evenodd" stroke="none" />
    <path d="M0 0L1 0L1 2L0 2L0 0Z" transform="translate(36 5)" id="Rectangle-2-Copy-5" fill="#ff0088" fill-rule="evenodd" stroke="none" />
    <path d="M0 0L1 0L1 5L0 5L0 0Z" transform="translate(29 4)" id="Rectangle-3-Copy-2" fill="#ff0088" fill-rule="evenodd" stroke="none" />
    <path d="M0 0L1 0L1 2L0 2L0 0Z" transform="translate(30 3)" id="Rectangle-4-Copy-2" fill="#ff0088" fill-rule="evenodd" stroke="none" />
    <path d="M0 0L1 0L1 1L0 1L0 0Z" transform="translate(29 2)" id="Rectangle-5-Copy-4" fill="#ff0088" fill-rule="evenodd" stroke="none" />
    <path d="M0 0L1 0L1 1L0 1L0 0Z" transform="translate(35 2)" id="Rectangle-5-Copy-5" fill="#ff0088" fill-rule="evenodd" stroke="none" />
    <path d="M0 0L1 0L1 4L0 4L0 0Z" transform="translate(31 4)" id="Rectangle-6-Copy-2" fill="#ff0088" fill-rule="evenodd" stroke="none" />
    <path d="M0 0L1 0L1 2L0 2L0 0Z" transform="translate(30 6)" id="Rectangle-7-Copy-2" fill="#ff0088" fill-rule="evenodd" stroke="none" />
    <path d="M0 0L1 0L1 4L0 4L0 0Z" transform="translate(32 4)" id="Rectangle-8-Copy-2" fill="#ff0088" fill-rule="evenodd" stroke="none" />
    <path d="M0 0L2 0L2 1L0 1L0 0Z" transform="translate(30 9)" id="Rectangle-9-Copy-4" fill="#ff0088" fill-rule="evenodd" stroke="none" />
    <path d="M0 0L2 0L2 1L0 1L0 0Z" transform="translate(33 9)" id="Rectangle-9-Copy-5" fill="#ff0088" fill-rule="evenodd" stroke="none" />
    <path d="M0 0L1 0L1 4L0 4L0 0Z" transform="translate(33 4)" id="Rectangle-10-Copy-4" fill="#ff0088" fill-rule="evenodd" stroke="none" />
    <path d="M0 0L1 0L1 5L0 5L0 0Z" transform="translate(35 4)" id="Rectangle-10-Copy-5" fill="#ff0088" fill-rule="evenodd" stroke="none" />
    <path d="M0 0L1 0L1 2L0 2L0 0Z" transform="translate(34 3)" id="Rectangle-11-Copy-4" fill="#ff0088" fill-rule="evenodd" stroke="none" />
    <path d="M0 0L1 0L1 2L0 2L0 0Z" transform="translate(34 6)" id="Rectangle-11-Copy-5" fill="#ff0088" fill-rule="evenodd" stroke="none" />
  </g>
</svg>