<?xml version="1.0" encoding="UTF-8" standalone="no"?>
<svg
   xmlns:dc="http://purl.org/dc/elements/1.1/"
   xmlns:cc="http://creativecommons.org/ns#"
   xmlns:rdf="http://www.w3.org/1999/02/22-rdf-syntax-ns#"
   xmlns:svg="http://www.w3.org/2000/svg"
   xmlns="http://www.w3.org/2000/svg"
   xmlns:sodipodi="http://sodipodi.sourceforge.net/DTD/sodipodi-0.dtd"
   xmlns:inkscape="http://www.inkscape.org/namespaces/inkscape"
   viewBox="0 0 708.661 708.662"
   height="200mm"
   width="200mm"
   xml:space="preserve"
   version="1.1"
   id="svg4171"
   inkscape:version="0.92.3 (2405546, 2018-03-11)"
   sodipodi:docname="logo2.svg"
   inkscape:export-filename="/home/dexter/projects/wolbodo/members/sapper/static/svelte-logo-512.png"
   inkscape:export-xdpi="65.02"
   inkscape:export-ydpi="65.02"><sodipodi:namedview
     pagecolor="#060000"
     bordercolor="#666666"
     borderopacity="1"
     objecttolerance="10"
     gridtolerance="10"
     guidetolerance="10"
     inkscape:pageopacity="0"
     inkscape:pageshadow="2"
     inkscape:window-width="1920"
     inkscape:window-height="1011"
     id="namedview4187"
     showgrid="false"
     units="mm"
     fit-margin-top="0"
     fit-margin-left="0"
     fit-margin-right="0"
     fit-margin-bottom="0"
     inkscape:zoom="1.07156"
     inkscape:cx="425.411"
     inkscape:cy="329.514"
     inkscape:window-x="0"
     inkscape:window-y="0"
     inkscape:window-maximized="1"
     inkscape:current-layer="layer1" /><metadata
     id="metadata4177"><rdf:RDF><cc:Work
         rdf:about=""><dc:format>image/svg+xml</dc:format><dc:type
           rdf:resource="http://purl.org/dc/dcmitype/StillImage" /><dc:title></dc:title></cc:Work></rdf:RDF></metadata><defs
     id="defs4175"><filter
       inkscape:collect="always"
       style="color-interpolation-filters:sRGB"
       id="filter1220"
       x="-0.0108972"
       width="1.02179"
       y="-0.0133511"
       height="1.0267"><feGaussianBlur
         inkscape:collect="always"
         stdDeviation="24.9908"
         id="feGaussianBlur1222" /></filter><filter
       inkscape:collect="always"
       style="color-interpolation-filters:sRGB"
       id="filter1329"
       x="-0.0544861"
       width="1.10897"
       y="-0.0667555"
       height="1.13351"><feGaussianBlur
         inkscape:collect="always"
         stdDeviation="124.954"
         id="feGaussianBlur1331" /></filter></defs><g
     inkscape:groupmode="layer"
     id="layer3"
     inkscape:label="ster 1"
     style="display:inline"><path
       style="fill:#fce00a;fill-opacity:1;fill-rule:nonzero;stroke:none;stroke-width:1;stroke-linejoin:bevel;stroke-miterlimit:4;stroke-dasharray:none;stroke-opacity:1"
       d="m 370.707,64.9336 v 0 c -3,0.096 -6.011,0.9714 -9.269,2.4434 -7.94,3.584 -14.083,12.9295 -17.887,20.5508 l -74.108,166.0092 -197.9293,24.389 c -10.8287,2.071 -17.5142,17.796 -12.6172,30.885 l 47.1445,47.144 c 22.962,0.752 45.956,-0.177 68.895,0.85 10.653,4.882 20.879,-4.102 31.544,-4.328 v 0 c 21.283,-0.07 44.784,7.726 56.725,26.445 14.707,-1.976 29.832,-3.486 44.5,-0.379 9.272,-9.918 21.472,-17.999 34.988,-21.158 46.639,-2.909 93.505,-0.573 140.233,-0.949 14.197,-2.87 30.633,5.823 33.822,20.468 6.226,2.358 14.518,2.878 21.002,6.315 4.052,4.335 8.601,-0.308 12.869,-1.525 1.502,-9.414 6.618,-20.106 16.18,-24.385 15.672,-4.452 32.417,-1.533 48.521,-2.151 6.568,-0.948 13.451,-0.833 20.119,0.377 l 0.602,-1.367 45.176,-44.328 c 9.888,-13.559 3.483,-29.85 -12.713,-32.578 l -195.197,-22.693 c -1.226,-0.473 -2.826,-1.791 -3.674,-3.674 l -74.012,-164.7853 c -2.757,-7.56 -8.386,-15.5844 -15.707,-19.3418 -3.218,-1.6527 -6.207,-2.338 -9.207,-2.2422 z m -162.793,461.4534 c -6.067,3.429 -12.469,6.325 -19.084,8.58 l -21.363,107.205 c 2.636,16.196 19.773,26.172 34.179,19.771 l 168.458,-97.836 169.679,97.274 c 14.315,5.367 30.982,-2.734 34.182,-17.518 l -19.774,-103.48 0.145,-0.33 c -10.302,1.596 -20.956,1.06 -30.836,-2.365 -5.185,-0.186 -8.726,-8.657 -13.857,-4.485 -12.403,7.275 -26.943,7.005 -40.772,7.139 -11.392,0.659 -22.834,-2.376 -32.322,-8.547 -20.9,11.736 -45.977,8.057 -68.832,6.904 -29.419,0.482 -59.06,-0.506 -88.561,-0.09 -23.985,2.816 -51.277,3.676 -71.242,-12.217 z"
       id="path1333"
       inkscape:connector-curvature="0"
       sodipodi:nodetypes="ccccccccccccccccccccccccccccccccccccccccccccccc"
       transform="matrix(0.937501,0,0,0.937501,-5e-4,0)" /></g><g
     inkscape:groupmode="layer"
     id="layer1"
     inkscape:label="ster"
     style="display:inline"><g
       id="g4181"
       transform="matrix(0.125,0,0,-0.125,11.2504,622.411)"
       style="fill:#3d1c33;fill-opacity:1;filter:url(#filter1329)"><path
         inkscape:connector-curvature="0"
         d="m 2759.36,4475.46 c 54.9,-28.18 97.11,-88.36 117.79,-145.06 l 555.09,-1235.88 c 6.36,-14.13 18.36,-24.01 27.55,-27.55 l 1463.99,-170.2 c 121.47,-20.47 169.5,-142.65 95.34,-244.35 l -339.69,-333.33 h -277.55 l 391.25,360.17 c 27.54,27.54 19.78,56.5 -16.24,57.2 l -1393.38,160.31 c -40.24,12.01 -99.57,75.57 -114.4,129.24 l -533.2,1167.38 c -20.48,65.68 -65.68,65.68 -95.34,-1.41 l -523.31,-1162.44 c -14.13,-64.26 -82.63,-131.36 -137.01,-134.89 l -1358.055,-169.49 c -36.019,7.77 -48.023,-12 -24.011,-40.95 l 399.011,-371.48 -289.543,-8.47 -355.937,355.93 c -36.727,98.17 13.418,216.11 94.633,231.64 l 1484.472,182.91 555.8,1245.07 c 28.53,57.16 74.62,127.25 134.15,154.13 48.88,22.08 90.32,26.31 138.59,1.52"
         style="fill:#3d1c33;fill-opacity:1;fill-rule:nonzero;stroke:none"
         id="path4183" /><path
         inkscape:connector-curvature="0"
         d="m 2053.12,1931.09 c -88.2,-6.05 -210.18,-57.77 -294.34,-25.85 -6.76,13.53 -160.68,316.44 -433.69,156.78 -29.27,-17.12 -82.62,-12 -98.16,26.83 0,0 -728.649,0 -728.825,0 -49.156,0 -108.519,-40.69 -147.531,-67.56 -114.926,-79.19 -180.91,-218.67 -185.98,-356.83 -1.61,-43.89 5.597,-85.38 24.855,-125.01 16.699,-34.39 44.93,-64.21 54.781,-101.75 9.778,-37.27 -3.64,-75.95 2.317,-113.63 4.574,-28.96 18.363,-70.63 36.5,-95.23 23.391,-31.7 59.605,-51.66 96.637,-65.89 55.546,-21.35 89.863,-35.79 147.652,-20.81 64.168,16.65 118.75,28.78 174.164,68.88 2.121,4.24 6.355,2.82 10.594,3.54 v 6.34 c 2.121,4.25 6.351,3.54 9.886,3.54 12.711,16.95 50.852,16.95 71.333,0 202.683,-136.3 485.167,-99.57 670.907,47.31 20.48,5.66 47.32,5.66 67.8,0 79.09,-104.51 227.4,-139.82 355.93,-128.52 64.97,5.64 131.36,31.78 195.62,7.76 191.39,-0.7 398.31,1.41 595.35,0 47.32,19.78 136.3,16.25 178.67,-6.36 102.41,-3.52 216.11,14.84 311.44,86.87 17.65,4.94 40.97,4.94 57.91,0 133.48,-132.76 356.64,-99.57 512.01,-16.94 40.25,26.12 94.64,22.59 108.06,-8.48 61.43,-71.33 179.37,-74.86 254.24,-45.91 36.71,4.95 79.09,4.95 115.82,0 91.09,-43.78 213.28,-6.36 298.02,54.39 7.77,16.24 36.02,10.59 54.38,6.34 72.74,-76.97 186.43,-79.79 284.61,-77.67 209.03,7.06 374.29,185.03 478.1,359.46 21.9,54.39 31.78,162.43 19.78,216.82 -25.43,117.22 -147.6,209.73 -270.49,216.79 -49.43,7.78 -193.5,-12.7 -297.31,-45.19 7.06,42.37 2.11,98.16 -1.42,116.53 -4.94,31.07 -67.79,72.03 -125,81.21 -115.81,-2.82 -232.34,8.48 -346.05,-9.89 -27.53,-45.9 11.3,-93.92 20.48,-139.12 -134.88,-4.24 -300.84,-57.21 -325.55,-103.81 -10.6,-5.65 -33.2,-4.95 -50.85,-1.41 -50.15,81.92 -217.52,117.93 -335.46,71.32 -26.14,-6.35 -56.5,-2.12 -84.75,-3.53 -49.43,-15.54 -106.64,-46.6 -156.07,-77.69 -50.15,-27.54 -96.75,38.15 -102.41,60.03 -4.23,31.79 -2.82,24.72 31.78,61.45 -21.19,-9.9 44.49,26.13 108.06,61.44 24,11.29 86.86,51.56 125,80.5 h -977.41 c -132.77,-15.53 -210.87,-138.17 -280.78,-235.64 -45.2,61.44 -146.21,83.52 -230.61,78.59 z m -197.42,150.71 c 52.96,7.77 146.18,17.66 186.44,20.47 32.48,4.25 137.01,-2.81 199.86,-20.47 37.43,73.44 175.85,160.31 278.25,173.03 364.41,7.06 730.23,0 1094.64,0 64.97,-12.72 136.31,-78.4 125.71,-155.37 80.51,-0.71 197.03,-36.73 233.76,-71.34 31.07,25.43 88.97,45.91 115.11,40.26 l 6.36,64.27 c 1.41,60.73 67.79,128.53 129.23,132.77 h 410.32 c 109.46,1.41 245.05,-89.69 271.19,-183.62 244.34,72.03 535.31,-62.86 581.21,-269.07 29.67,-153.95 16.95,-354.52 -25.42,-401.84 -113.7,-286.02 -498.6,-502.831 -769.07,-433.62 -42.38,2.121 -99.57,27.54 -137.72,40.96 -19.06,9.19 -44.49,9.89 -51.55,1.41 -46.6,-33.191 -189.97,-54.378 -276.12,-45.902 -27.55,5.653 -58.63,14.133 -74.87,19.071 -12.71,6.363 -43.07,-1.418 -53.67,-13.418 -62.86,-5.653 -128.53,-9.18 -186.44,-5.653 -37.44,6.352 -99.59,33.192 -124.3,54.382 -24.02,18.36 -55.79,16.24 -72.74,-1.41 -48.73,-28.96 -135.59,-52.261 -165.26,-49.44 h -192.79 c -25.43,-5.649 -113.7,30.36 -176.56,71.33 -25.43,-27.54 -128.53,-63.549 -206.92,-71.33 h -152.55 c -45.9,2.82 -105.22,7.781 -118.64,9.878 h -305.09 c -146.89,-8.457 -334.74,17.662 -501.41,-9.878 -146.89,-7.059 -312.86,3.531 -423.74,115.11 -97.45,-67.09 -221.04,-107.329 -329.09,-115.11 h -182.912 c -83.336,7.781 -162.434,46.61 -240.82,57.21 -79.098,-60.031 -195.625,-60.031 -294.496,-57.21 -154.661,13.421 -268.36,148.3 -322.039,277.54 -13.4146,41.67 -19.77,105.24 -12.7075,126.42 -39.5469,37.43 -78.3907,120.76 -82.62894,161.73 -12.00781,50.13 -9.88672,147.59 0,216.8 24.71874,240.11 232.34344,431.51 436.44544,500.01 l 781.078,-4.94 c 21.89,-24.73 112.29,-14.84 179.38,20.47 30.37,12.01 111.58,12.01 162.43,0 125.71,-18.36 269.77,-115.11 288.14,-193.5"
         style="fill:#3d1c33;fill-opacity:1;fill-rule:nonzero;stroke:none"
         id="path4185" /><path
         inkscape:connector-curvature="0"
         d="m 2814.81,1977.35 c -119.88,-26.08 -180.92,-209.22 -233.13,-337.14 -81.44,-199.58 -151.07,-375.53 -241.8,-384.1 l -242.66,0.41 c 77.69,46.6 197.75,237.99 240.82,382.06 57.21,120.76 72.04,302.26 228.82,336.87 l 247.95,1.9"
         style="fill:#3d1c33;fill-opacity:1;fill-rule:nonzero;stroke:none"
         id="path4187" /><path
         inkscape:connector-curvature="0"
         d="m 2909.2,1609.94 c 47.36,7.45 63.55,24.89 86.17,-2.65 10,-8.24 9.89,-31.25 -1.42,-48.91 -11.3,-24.71 -47.31,-50.84 -75.57,-47.32 -34.08,4.18 -67.15,32.59 -31.59,111.31 24.92,63.54 111.09,253.48 218.74,339.97 v 7.06 h -182.91 c -180.35,-8.17 -215.23,-217.46 -271.89,-350.99 -64.18,-177.93 -120.25,-286.3 -233.05,-360.88 89.69,0 175.85,-13.41 264.13,0 21.18,-1.41 76.27,58.62 84.74,64.27 -6.98,-4.67 9.55,-35.29 12.83,-39.79 8.59,-11.8 18.67,-18.77 31.99,-23.59 33.53,-12.12 67.61,-11.03 102.78,-11.03 55.41,0 101.87,10.6 148.07,42.56 43.84,30.31 79.56,71.42 108.2,116.1 20.56,32.1 37.6,66.49 50.93,102.19 40.96,89.69 27.55,230.23 -28.94,277.55 -141.82,78.66 -249.97,-73.14 -260.02,-102.88 -1.37,-4.05 -21.55,-42.44 -23.19,-72.97"
         style="fill:#3d1c33;fill-opacity:1;fill-rule:nonzero;stroke:none"
         id="path4189" /><path
         inkscape:connector-curvature="0"
         d="m 4279.26,1609.52 c -22.33,24.04 -64.17,4.99 -84.3,-9.37 -43.46,-30.98 -36.22,-66.23 -21.27,-81.18 13.05,-9.22 21.45,-4.72 37.11,-3.23 10.38,0.98 29.49,11.67 34.52,1.24 5.14,-10.68 -12.88,-45.02 -16.82,-55.31 -11.43,-29.95 -25.27,-60.71 -42.16,-87.98 -18.38,-29.71 -25.4,-40.95 -56.95,-76.56 -20,-22.58 -38.99,-34.67 -68.61,-42.32 -25.42,-8.47 -86.87,-8.47 -122.17,0 -86.87,28.25 -62.68,137.09 -60.74,176.55 14.12,221.06 288.84,451.99 460.46,372.19 10.58,-4.95 22.59,-26.84 24.01,-43.79 36.72,66.39 74.15,151.84 61.43,217.52 l 201.99,4.94 c 12,-1.41 24.71,-11.3 25.42,-19.77 10.86,-27.39 -24.72,-173.73 -96.75,-323.45 -28.25,-54.38 -35.67,-102.59 -28.96,-115.82 15.73,-22.89 33.2,7.06 54.38,1.41 -10.6,-102.41 -122.18,-233.05 -224.57,-269.07 -30.46,-10.71 -71.26,-10.29 -102.45,-3.16 -31.16,7.12 -43.41,23.55 -50.8,54.45 -11.8,49.37 37.2,139.82 73.83,218.18 19.91,42.56 14.68,72.38 3.4,84.53"
         style="fill:#3d1c33;fill-opacity:1;fill-rule:nonzero;stroke:none"
         id="path4191" /><path
         inkscape:connector-curvature="0"
         d="m 4066.43,926.418 148.3,-776.129 c -24,-110.8788 -149,-171.6171 -256.36,-131.3593 l -1272.6,729.5313 -1263.43,-733.7696 c -108.05,-48.0117 -236.58,26.8399 -256.35,148.3086 l 161.01,807.91 c 62.85,7.781 110.17,43.78 150.43,61.44 0,-9.88 24.01,-24.72 48.73,-29.65 l -148.31,-729.528 c -5.65,-29.672 13.42,-47.32 40.26,-33.902 l 1221.05,678.691 h 104.52 l 1216.81,-687.16 c 21.19,-0.711 42.38,4.238 44.5,33.89 l -132.07,663.848 193.51,-2.121"
         style="fill:#3d1c33;fill-opacity:1;fill-rule:nonzero;stroke:none"
         id="path4193" /><path
         inkscape:connector-curvature="0"
         d="m 1814.89,1568.57 c -0.71,-36.73 33.67,-75.76 64.04,-75.76 42.37,-12 96.25,23.49 114.61,67.27 -4.75,-16.09 31.14,66.03 -26.16,66.03 -49.83,3.74 -112.04,-45.12 -102.16,-100.91 -74.29,83.4 14.67,187.85 79.53,239.23 33.87,25.45 141.86,70.27 211.99,32.35 67.85,-26.87 89.19,-78.34 88.45,-77.23 64.68,-185.08 -129.74,-421.5 -346.33,-464.69 -103.42,-8.76 -247.82,-11.87 -295.13,100.43 -48.73,178.67 120.76,399.01 360.87,449.86 -79.06,-65.55 -150.83,-115.06 -149.71,-236.58"
         style="fill:#3d1c33;fill-opacity:1;fill-rule:nonzero;stroke:none"
         id="path4195" /><path
         inkscape:connector-curvature="0"
         d="m 1271.21,1732.22 c -67.09,-67.8 -36.01,-118.64 60.74,-102.4 -72.04,-60.74 -156.78,-39.55 -153.25,28.96 8.57,72.47 67.44,126.76 136.65,137.35 40.61,3.53 70.27,-5.29 81.57,-28.59 -41.67,10.58 -104.52,-7.08 -125.71,-35.32 z m -724.108,86.04 c -32.489,55.79 -106.872,47.31 -161.016,-0.94 -22.363,-22.36 -32.07,-52.99 -31.074,-72.51 -2.125,-48.73 64.265,-51.55 133.468,-4.24 35.075,22.73 18.84,10.83 47.086,41.44 -11.296,-79.1 -138.183,-177.03 -195.39,-109.23 -12.711,13.41 -17.656,53.67 -10.59,81.21 2.82,15.54 18.359,45.91 31.074,60.73 45.903,57.91 131.356,130.66 203.387,81.93 -1.41,-30.37 -9.887,-69.21 -16.945,-78.39 z m 1107.588,44.96 c -2.12,30.37 -21.89,73.46 -40.26,86.86 -102.14,77.14 -359.58,49.49 -470.34,-216.32 19.36,48.95 -78.86,-168.32 55.79,-174.92 46.61,-6.35 84.28,10.12 115.82,26.84 -26.12,-31.78 -60.73,-52.27 -98.16,-64.27 -105.23,-14.83 -124.06,-6.59 -137.01,47.55 -5.46,72.52 27.07,133.59 40.02,168.32 3.35,5.7 89.57,151.54 79.33,210.68 1.41,18.36 -19.06,33.21 -40.25,31.09 h -213.985 c 7.058,-33.19 5.648,-79.82 -1.411,-93.94 l -138.418,-300.85 c -43.082,-76.98 -98.875,-94.63 -111.586,-34.61 l 161.02,353.83 c 3.527,14.12 0.707,37.42 -4.238,44.48 -2.824,12.02 -24.719,27.55 -43.789,31.09 h -264.828 c -81.922,4.93 -150.426,-61.45 -196.332,-125.71 -82.391,-106.64 -81.215,-210.23 -71.329,-223.87 9.18,-79.1 110.172,-102.4 165.965,-74.15 v -10.6 c -31.781,-46.62 -53.679,-108.76 -62.855,-149.02 -6.356,-14.82 -6.356,-48.72 0,-67.09 5.648,-31.78 40.258,-57.2 62.855,-72.03 16.242,-4.94 70.617,-4.94 108.754,0 88.277,24.01 198.445,127.12 220.344,206.92 1.414,-91.8 99.578,-195.62 196.324,-206.92 29.664,-2.82 120.769,-2.82 182.919,0 295.9,47.31 548.02,350.99 505.65,606.64"
         style="fill:#3d1c33;fill-opacity:1;fill-rule:nonzero;stroke:none"
         id="path4197" /><path
         inkscape:connector-curvature="0"
         d="m 3456.25,1568.95 c -0.72,-36.73 33.67,-75.76 64.03,-75.76 42.37,-12.01 96.25,23.49 114.62,67.27 -4.75,-16.09 31.14,66.03 -26.17,66.03 -49.83,3.74 -112.05,-45.12 -102.15,-100.91 -74.3,83.4 14.66,187.85 79.53,239.23 33.86,25.45 141.85,70.27 211.99,32.35 67.84,-26.88 89.19,-78.34 88.44,-77.23 64.68,-185.09 -129.73,-421.5 -346.33,-464.69 -103.42,-8.76 -247.81,-11.86 -295.13,100.43 -48.73,178.67 120.76,399.01 360.87,449.86 -79.06,-65.55 -150.83,-115.07 -149.7,-236.58"
         style="fill:#3d1c33;fill-opacity:1;fill-rule:nonzero;stroke:none"
         id="path4199" /><path
         inkscape:connector-curvature="0"
         d="m 4787.67,1569.33 c -0.7,-36.73 33.67,-75.76 64.04,-75.76 42.38,-12.01 96.25,23.48 114.61,67.27 -4.74,-16.09 31.16,66.03 -26.16,66.03 -49.83,3.73 -112.04,-45.12 -102.16,-100.91 -74.28,83.39 14.67,187.85 79.53,239.23 33.87,25.44 141.87,70.27 212,32.36 67.85,-26.89 89.19,-78.35 88.44,-77.25 64.68,-185.08 -129.73,-421.49 -346.32,-464.68 -103.42,-8.76 -247.82,-11.86 -295.14,100.43 -48.73,178.67 120.76,399.01 360.88,449.86 -79.06,-65.56 -150.83,-115.06 -149.72,-236.58"
         style="fill:#3d1c33;fill-opacity:1;fill-rule:nonzero;stroke:none"
         id="path4201" /></g><g
       style="display:inline;fill:none;fill-opacity:1;stroke:#d9be27;stroke-width:37.500031;stroke-linejoin:bevel;stroke-miterlimit:4;stroke-dasharray:none;stroke-opacity:1;filter:url(#filter1220)"
       id="g1204"
       transform="matrix(0.125,0,0,-0.125,11.2504,622.411)"><path
         inkscape:connector-curvature="0"
         d="m 2759.36,4475.46 c 54.9,-28.18 97.11,-88.36 117.79,-145.06 l 555.09,-1235.88 c 6.36,-14.13 18.36,-24.01 27.55,-27.55 l 1463.99,-170.2 c 121.47,-20.47 169.5,-142.65 95.34,-244.35 l -339.69,-333.33 h -277.55 l 391.25,360.17 c 27.54,27.54 19.78,56.5 -16.24,57.2 l -1393.38,160.31 c -40.24,12.01 -99.57,75.57 -114.4,129.24 l -533.2,1167.38 c -20.48,65.68 -65.68,65.68 -95.34,-1.41 l -523.31,-1162.44 c -14.13,-64.26 -82.63,-131.36 -137.01,-134.89 l -1358.055,-169.49 c -36.019,7.77 -48.023,-12 -24.011,-40.95 l 399.011,-371.48 -289.543,-8.47 -355.937,355.93 c -36.727,98.17 13.418,216.11 94.633,231.64 l 1484.472,182.91 555.8,1245.07 c 28.53,57.16 74.62,127.25 134.15,154.13 48.88,22.08 90.32,26.31 138.59,1.52"
         style="fill:none;fill-opacity:1;fill-rule:nonzero;stroke:#d9be27;stroke-width:37.500031;stroke-linejoin:bevel;stroke-miterlimit:4;stroke-dasharray:none;stroke-opacity:1"
         id="path1184" /><path
         inkscape:connector-curvature="0"
         d="m 2053.12,1931.09 c -88.2,-6.05 -210.18,-57.77 -294.34,-25.85 -6.76,13.53 -160.68,316.44 -433.69,156.78 -29.27,-17.12 -82.62,-12 -98.16,26.83 0,0 -728.649,0 -728.825,0 -49.156,0 -108.519,-40.69 -147.531,-67.56 -114.926,-79.19 -180.91,-218.67 -185.98,-356.83 -1.61,-43.89 5.597,-85.38 24.855,-125.01 16.699,-34.39 44.93,-64.21 54.781,-101.75 9.778,-37.27 -3.64,-75.95 2.317,-113.63 4.574,-28.96 18.363,-70.63 36.5,-95.23 23.391,-31.7 59.605,-51.66 96.637,-65.89 55.546,-21.35 89.863,-35.79 147.652,-20.81 64.168,16.65 118.75,28.78 174.164,68.88 2.121,4.24 6.355,2.82 10.594,3.54 v 6.34 c 2.121,4.25 6.351,3.54 9.886,3.54 12.711,16.95 50.852,16.95 71.333,0 202.683,-136.3 485.167,-99.57 670.907,47.31 20.48,5.66 47.32,5.66 67.8,0 79.09,-104.51 227.4,-139.82 355.93,-128.52 64.97,5.64 131.36,31.78 195.62,7.76 191.39,-0.7 398.31,1.41 595.35,0 47.32,19.78 136.3,16.25 178.67,-6.36 102.41,-3.52 216.11,14.84 311.44,86.87 17.65,4.94 40.97,4.94 57.91,0 133.48,-132.76 356.64,-99.57 512.01,-16.94 40.25,26.12 94.64,22.59 108.06,-8.48 61.43,-71.33 179.37,-74.86 254.24,-45.91 36.71,4.95 79.09,4.95 115.82,0 91.09,-43.78 213.28,-6.36 298.02,54.39 7.77,16.24 36.02,10.59 54.38,6.34 72.74,-76.97 186.43,-79.79 284.61,-77.67 209.03,7.06 374.29,185.03 478.1,359.46 21.9,54.39 31.78,162.43 19.78,216.82 -25.43,117.22 -147.6,209.73 -270.49,216.79 -49.43,7.78 -193.5,-12.7 -297.31,-45.19 7.06,42.37 2.11,98.16 -1.42,116.53 -4.94,31.07 -67.79,72.03 -125,81.21 -115.81,-2.82 -232.34,8.48 -346.05,-9.89 -27.53,-45.9 11.3,-93.92 20.48,-139.12 -134.88,-4.24 -300.84,-57.21 -325.55,-103.81 -10.6,-5.65 -33.2,-4.95 -50.85,-1.41 -50.15,81.92 -217.52,117.93 -335.46,71.32 -26.14,-6.35 -56.5,-2.12 -84.75,-3.53 -49.43,-15.54 -106.64,-46.6 -156.07,-77.69 -50.15,-27.54 -96.75,38.15 -102.41,60.03 -4.23,31.79 -2.82,24.72 31.78,61.45 -21.19,-9.9 44.49,26.13 108.06,61.44 24,11.29 86.86,51.56 125,80.5 h -977.41 c -132.77,-15.53 -210.87,-138.17 -280.78,-235.64 -45.2,61.44 -146.21,83.52 -230.61,78.59 z m -197.42,150.71 c 52.96,7.77 146.18,17.66 186.44,20.47 32.48,4.25 137.01,-2.81 199.86,-20.47 37.43,73.44 175.85,160.31 278.25,173.03 364.41,7.06 730.23,0 1094.64,0 64.97,-12.72 136.31,-78.4 125.71,-155.37 80.51,-0.71 197.03,-36.73 233.76,-71.34 31.07,25.43 88.97,45.91 115.11,40.26 l 6.36,64.27 c 1.41,60.73 67.79,128.53 129.23,132.77 h 410.32 c 109.46,1.41 245.05,-89.69 271.19,-183.62 244.34,72.03 535.31,-62.86 581.21,-269.07 29.67,-153.95 16.95,-354.52 -25.42,-401.84 -113.7,-286.02 -498.6,-502.831 -769.07,-433.62 -42.38,2.121 -99.57,27.54 -137.72,40.96 -19.06,9.19 -44.49,9.89 -51.55,1.41 -46.6,-33.191 -189.97,-54.378 -276.12,-45.902 -27.55,5.653 -58.63,14.133 -74.87,19.071 -12.71,6.363 -43.07,-1.418 -53.67,-13.418 -62.86,-5.653 -128.53,-9.18 -186.44,-5.653 -37.44,6.352 -99.59,33.192 -124.3,54.382 -24.02,18.36 -55.79,16.24 -72.74,-1.41 -48.73,-28.96 -135.59,-52.261 -165.26,-49.44 h -192.79 c -25.43,-5.649 -113.7,30.36 -176.56,71.33 -25.43,-27.54 -128.53,-63.549 -206.92,-71.33 h -152.55 c -45.9,2.82 -105.22,7.781 -118.64,9.878 h -305.09 c -146.89,-8.457 -334.74,17.662 -501.41,-9.878 -146.89,-7.059 -312.86,3.531 -423.74,115.11 -97.45,-67.09 -221.04,-107.329 -329.09,-115.11 h -182.912 c -83.336,7.781 -162.434,46.61 -240.82,57.21 -79.098,-60.031 -195.625,-60.031 -294.496,-57.21 -154.661,13.421 -268.36,148.3 -322.039,277.54 -13.4146,41.67 -19.77,105.24 -12.7075,126.42 -39.5469,37.43 -78.3907,120.76 -82.62894,161.73 -12.00781,50.13 -9.88672,147.59 0,216.8 24.71874,240.11 232.34344,431.51 436.44544,500.01 l 781.078,-4.94 c 21.89,-24.73 112.29,-14.84 179.38,20.47 30.37,12.01 111.58,12.01 162.43,0 125.71,-18.36 269.77,-115.11 288.14,-193.5"
         style="fill:none;fill-opacity:1;fill-rule:nonzero;stroke:#d9be27;stroke-width:37.500031;stroke-linejoin:bevel;stroke-miterlimit:4;stroke-dasharray:none;stroke-opacity:1"
         id="path1186" /><path
         inkscape:connector-curvature="0"
         d="m 2814.81,1977.35 c -119.88,-26.08 -180.92,-209.22 -233.13,-337.14 -81.44,-199.58 -151.07,-375.53 -241.8,-384.1 l -242.66,0.41 c 77.69,46.6 197.75,237.99 240.82,382.06 57.21,120.76 72.04,302.26 228.82,336.87 l 247.95,1.9"
         style="fill:none;fill-opacity:1;fill-rule:nonzero;stroke:#d9be27;stroke-width:37.500031;stroke-linejoin:bevel;stroke-miterlimit:4;stroke-dasharray:none;stroke-opacity:1"
         id="path1188" /><path
         inkscape:connector-curvature="0"
         d="m 2909.2,1609.94 c 47.36,7.45 63.55,24.89 86.17,-2.65 10,-8.24 9.89,-31.25 -1.42,-48.91 -11.3,-24.71 -47.31,-50.84 -75.57,-47.32 -34.08,4.18 -67.15,32.59 -31.59,111.31 24.92,63.54 111.09,253.48 218.74,339.97 v 7.06 h -182.91 c -180.35,-8.17 -215.23,-217.46 -271.89,-350.99 -64.18,-177.93 -120.25,-286.3 -233.05,-360.88 89.69,0 175.85,-13.41 264.13,0 21.18,-1.41 76.27,58.62 84.74,64.27 -6.98,-4.67 9.55,-35.29 12.83,-39.79 8.59,-11.8 18.67,-18.77 31.99,-23.59 33.53,-12.12 67.61,-11.03 102.78,-11.03 55.41,0 101.87,10.6 148.07,42.56 43.84,30.31 79.56,71.42 108.2,116.1 20.56,32.1 37.6,66.49 50.93,102.19 40.96,89.69 27.55,230.23 -28.94,277.55 -141.82,78.66 -249.97,-73.14 -260.02,-102.88 -1.37,-4.05 -21.55,-42.44 -23.19,-72.97"
         style="fill:none;fill-opacity:1;fill-rule:nonzero;stroke:#d9be27;stroke-width:37.500031;stroke-linejoin:bevel;stroke-miterlimit:4;stroke-dasharray:none;stroke-opacity:1"
         id="path1190" /><path
         inkscape:connector-curvature="0"
         d="m 4279.26,1609.52 c -22.33,24.04 -64.17,4.99 -84.3,-9.37 -43.46,-30.98 -36.22,-66.23 -21.27,-81.18 13.05,-9.22 21.45,-4.72 37.11,-3.23 10.38,0.98 29.49,11.67 34.52,1.24 5.14,-10.68 -12.88,-45.02 -16.82,-55.31 -11.43,-29.95 -25.27,-60.71 -42.16,-87.98 -18.38,-29.71 -25.4,-40.95 -56.95,-76.56 -20,-22.58 -38.99,-34.67 -68.61,-42.32 -25.42,-8.47 -86.87,-8.47 -122.17,0 -86.87,28.25 -62.68,137.09 -60.74,176.55 14.12,221.06 288.84,451.99 460.46,372.19 10.58,-4.95 22.59,-26.84 24.01,-43.79 36.72,66.39 74.15,151.84 61.43,217.52 l 201.99,4.94 c 12,-1.41 24.71,-11.3 25.42,-19.77 10.86,-27.39 -24.72,-173.73 -96.75,-323.45 -28.25,-54.38 -35.67,-102.59 -28.96,-115.82 15.73,-22.89 33.2,7.06 54.38,1.41 -10.6,-102.41 -122.18,-233.05 -224.57,-269.07 -30.46,-10.71 -71.26,-10.29 -102.45,-3.16 -31.16,7.12 -43.41,23.55 -50.8,54.45 -11.8,49.37 37.2,139.82 73.83,218.18 19.91,42.56 14.68,72.38 3.4,84.53"
         style="fill:none;fill-opacity:1;fill-rule:nonzero;stroke:#d9be27;stroke-width:37.500031;stroke-linejoin:bevel;stroke-miterlimit:4;stroke-dasharray:none;stroke-opacity:1"
         id="path1192" /><path
         inkscape:connector-curvature="0"
         d="m 4066.43,926.418 148.3,-776.129 c -24,-110.8788 -149,-171.6171 -256.36,-131.3593 l -1272.6,729.5313 -1263.43,-733.7696 c -108.05,-48.0117 -236.58,26.8399 -256.35,148.3086 l 161.01,807.91 c 62.85,7.781 110.17,43.78 150.43,61.44 0,-9.88 24.01,-24.72 48.73,-29.65 l -148.31,-729.528 c -5.65,-29.672 13.42,-47.32 40.26,-33.902 l 1221.05,678.691 h 104.52 l 1216.81,-687.16 c 21.19,-0.711 42.38,4.238 44.5,33.89 l -132.07,663.848 193.51,-2.121"
         style="fill:none;fill-opacity:1;fill-rule:nonzero;stroke:#d9be27;stroke-width:37.500031;stroke-linejoin:bevel;stroke-miterlimit:4;stroke-dasharray:none;stroke-opacity:1"
         id="path1194" /><path
         inkscape:connector-curvature="0"
         d="m 1814.89,1568.57 c -0.71,-36.73 33.67,-75.76 64.04,-75.76 42.37,-12 96.25,23.49 114.61,67.27 -4.75,-16.09 31.14,66.03 -26.16,66.03 -49.83,3.74 -112.04,-45.12 -102.16,-100.91 -74.29,83.4 14.67,187.85 79.53,239.23 33.87,25.45 141.86,70.27 211.99,32.35 67.85,-26.87 89.19,-78.34 88.45,-77.23 64.68,-185.08 -129.74,-421.5 -346.33,-464.69 -103.42,-8.76 -247.82,-11.87 -295.13,100.43 -48.73,178.67 120.76,399.01 360.87,449.86 -79.06,-65.55 -150.83,-115.06 -149.71,-236.58"
         style="fill:none;fill-opacity:1;fill-rule:nonzero;stroke:#d9be27;stroke-width:37.500031;stroke-linejoin:bevel;stroke-miterlimit:4;stroke-dasharray:none;stroke-opacity:1"
         id="path1196" /><path
         inkscape:connector-curvature="0"
         d="m 1271.21,1732.22 c -67.09,-67.8 -36.01,-118.64 60.74,-102.4 -72.04,-60.74 -156.78,-39.55 -153.25,28.96 8.57,72.47 67.44,126.76 136.65,137.35 40.61,3.53 70.27,-5.29 81.57,-28.59 -41.67,10.58 -104.52,-7.08 -125.71,-35.32 z m -724.108,86.04 c -32.489,55.79 -106.872,47.31 -161.016,-0.94 -22.363,-22.36 -32.07,-52.99 -31.074,-72.51 -2.125,-48.73 64.265,-51.55 133.468,-4.24 35.075,22.73 18.84,10.83 47.086,41.44 -11.296,-79.1 -138.183,-177.03 -195.39,-109.23 -12.711,13.41 -17.656,53.67 -10.59,81.21 2.82,15.54 18.359,45.91 31.074,60.73 45.903,57.91 131.356,130.66 203.387,81.93 -1.41,-30.37 -9.887,-69.21 -16.945,-78.39 z m 1107.588,44.96 c -2.12,30.37 -21.89,73.46 -40.26,86.86 -102.14,77.14 -359.58,49.49 -470.34,-216.32 19.36,48.95 -78.86,-168.32 55.79,-174.92 46.61,-6.35 84.28,10.12 115.82,26.84 -26.12,-31.78 -60.73,-52.27 -98.16,-64.27 -105.23,-14.83 -124.06,-6.59 -137.01,47.55 -5.46,72.52 27.07,133.59 40.02,168.32 3.35,5.7 89.57,151.54 79.33,210.68 1.41,18.36 -19.06,33.21 -40.25,31.09 h -213.985 c 7.058,-33.19 5.648,-79.82 -1.411,-93.94 l -138.418,-300.85 c -43.082,-76.98 -98.875,-94.63 -111.586,-34.61 l 161.02,353.83 c 3.527,14.12 0.707,37.42 -4.238,44.48 -2.824,12.02 -24.719,27.55 -43.789,31.09 h -264.828 c -81.922,4.93 -150.426,-61.45 -196.332,-125.71 -82.391,-106.64 -81.215,-210.23 -71.329,-223.87 9.18,-79.1 110.172,-102.4 165.965,-74.15 v -10.6 c -31.781,-46.62 -53.679,-108.76 -62.855,-149.02 -6.356,-14.82 -6.356,-48.72 0,-67.09 5.648,-31.78 40.258,-57.2 62.855,-72.03 16.242,-4.94 70.617,-4.94 108.754,0 88.277,24.01 198.445,127.12 220.344,206.92 1.414,-91.8 99.578,-195.62 196.324,-206.92 29.664,-2.82 120.769,-2.82 182.919,0 295.9,47.31 548.02,350.99 505.65,606.64"
         style="fill:none;fill-opacity:1;fill-rule:nonzero;stroke:#d9be27;stroke-width:37.500031;stroke-linejoin:bevel;stroke-miterlimit:4;stroke-dasharray:none;stroke-opacity:1"
         id="path1198" /><path
         inkscape:connector-curvature="0"
         d="m 3456.25,1568.95 c -0.72,-36.73 33.67,-75.76 64.03,-75.76 42.37,-12.01 96.25,23.49 114.62,67.27 -4.75,-16.09 31.14,66.03 -26.17,66.03 -49.83,3.74 -112.05,-45.12 -102.15,-100.91 -74.3,83.4 14.66,187.85 79.53,239.23 33.86,25.45 141.85,70.27 211.99,32.35 67.84,-26.88 89.19,-78.34 88.44,-77.23 64.68,-185.09 -129.73,-421.5 -346.33,-464.69 -103.42,-8.76 -247.81,-11.86 -295.13,100.43 -48.73,178.67 120.76,399.01 360.87,449.86 -79.06,-65.55 -150.83,-115.07 -149.7,-236.58"
         style="fill:none;fill-opacity:1;fill-rule:nonzero;stroke:#d9be27;stroke-width:37.500031;stroke-linejoin:bevel;stroke-miterlimit:4;stroke-dasharray:none;stroke-opacity:1"
         id="path1200" /><path
         inkscape:connector-curvature="0"
         d="m 4787.67,1569.33 c -0.7,-36.73 33.67,-75.76 64.04,-75.76 42.38,-12.01 96.25,23.48 114.61,67.27 -4.74,-16.09 31.16,66.03 -26.16,66.03 -49.83,3.73 -112.04,-45.12 -102.16,-100.91 -74.28,83.39 14.67,187.85 79.53,239.23 33.87,25.44 141.87,70.27 212,32.36 67.85,-26.89 89.19,-78.35 88.44,-77.25 64.68,-185.08 -129.73,-421.49 -346.32,-464.68 -103.42,-8.76 -247.82,-11.86 -295.14,100.43 -48.73,178.67 120.76,399.01 360.88,449.86 -79.06,-65.56 -150.83,-115.06 -149.72,-236.58"
         style="fill:none;fill-opacity:1;fill-rule:nonzero;stroke:#d9be27;stroke-width:37.500031;stroke-linejoin:bevel;stroke-miterlimit:4;stroke-dasharray:none;stroke-opacity:1"
         id="path1202" /></g><g
       transform="matrix(0.125,0,0,-0.125,11.2504,622.411)"
       id="g1098"
       style="display:inline;fill:#8a4d76;fill-opacity:1"><path
         id="path1078"
         style="fill:#8a4d76;fill-opacity:1;fill-rule:nonzero;stroke:none"
         d="m 2759.36,4475.46 c 54.9,-28.18 97.11,-88.36 117.79,-145.06 l 555.09,-1235.88 c 6.36,-14.13 18.36,-24.01 27.55,-27.55 l 1463.99,-170.2 c 121.47,-20.47 169.5,-142.65 95.34,-244.35 l -339.69,-333.33 h -277.55 l 391.25,360.17 c 27.54,27.54 19.78,56.5 -16.24,57.2 l -1393.38,160.31 c -40.24,12.01 -99.57,75.57 -114.4,129.24 l -533.2,1167.38 c -20.48,65.68 -65.68,65.68 -95.34,-1.41 l -523.31,-1162.44 c -14.13,-64.26 -82.63,-131.36 -137.01,-134.89 l -1358.055,-169.49 c -36.019,7.77 -48.023,-12 -24.011,-40.95 l 399.011,-371.48 -289.543,-8.47 -355.937,355.93 c -36.727,98.17 13.418,216.11 94.633,231.64 l 1484.472,182.91 555.8,1245.07 c 28.53,57.16 74.62,127.25 134.15,154.13 48.88,22.08 90.32,26.31 138.59,1.52"
         inkscape:connector-curvature="0" /><path
         id="path1080"
         style="fill:#8a4d76;fill-opacity:1;fill-rule:nonzero;stroke:none"
         d="m 2053.12,1931.09 c -88.2,-6.05 -210.18,-57.77 -294.34,-25.85 -6.76,13.53 -160.68,316.44 -433.69,156.78 -29.27,-17.12 -82.62,-12 -98.16,26.83 0,0 -728.649,0 -728.825,0 -49.156,0 -108.519,-40.69 -147.531,-67.56 -114.926,-79.19 -180.91,-218.67 -185.98,-356.83 -1.61,-43.89 5.597,-85.38 24.855,-125.01 16.699,-34.39 44.93,-64.21 54.781,-101.75 9.778,-37.27 -3.64,-75.95 2.317,-113.63 4.574,-28.96 18.363,-70.63 36.5,-95.23 23.391,-31.7 59.605,-51.66 96.637,-65.89 55.546,-21.35 89.863,-35.79 147.652,-20.81 64.168,16.65 118.75,28.78 174.164,68.88 2.121,4.24 6.355,2.82 10.594,3.54 v 6.34 c 2.121,4.25 6.351,3.54 9.886,3.54 12.711,16.95 50.852,16.95 71.333,0 202.683,-136.3 485.167,-99.57 670.907,47.31 20.48,5.66 47.32,5.66 67.8,0 79.09,-104.51 227.4,-139.82 355.93,-128.52 64.97,5.64 131.36,31.78 195.62,7.76 191.39,-0.7 398.31,1.41 595.35,0 47.32,19.78 136.3,16.25 178.67,-6.36 102.41,-3.52 216.11,14.84 311.44,86.87 17.65,4.94 40.97,4.94 57.91,0 133.48,-132.76 356.64,-99.57 512.01,-16.94 40.25,26.12 94.64,22.59 108.06,-8.48 61.43,-71.33 179.37,-74.86 254.24,-45.91 36.71,4.95 79.09,4.95 115.82,0 91.09,-43.78 213.28,-6.36 298.02,54.39 7.77,16.24 36.02,10.59 54.38,6.34 72.74,-76.97 186.43,-79.79 284.61,-77.67 209.03,7.06 374.29,185.03 478.1,359.46 21.9,54.39 31.78,162.43 19.78,216.82 -25.43,117.22 -147.6,209.73 -270.49,216.79 -49.43,7.78 -193.5,-12.7 -297.31,-45.19 7.06,42.37 2.11,98.16 -1.42,116.53 -4.94,31.07 -67.79,72.03 -125,81.21 -115.81,-2.82 -232.34,8.48 -346.05,-9.89 -27.53,-45.9 11.3,-93.92 20.48,-139.12 -134.88,-4.24 -300.84,-57.21 -325.55,-103.81 -10.6,-5.65 -33.2,-4.95 -50.85,-1.41 -50.15,81.92 -217.52,117.93 -335.46,71.32 -26.14,-6.35 -56.5,-2.12 -84.75,-3.53 -49.43,-15.54 -106.64,-46.6 -156.07,-77.69 -50.15,-27.54 -96.75,38.15 -102.41,60.03 -4.23,31.79 -2.82,24.72 31.78,61.45 -21.19,-9.9 44.49,26.13 108.06,61.44 24,11.29 86.86,51.56 125,80.5 h -977.41 c -132.77,-15.53 -210.87,-138.17 -280.78,-235.64 -45.2,61.44 -146.21,83.52 -230.61,78.59 z m -197.42,150.71 c 52.96,7.77 146.18,17.66 186.44,20.47 32.48,4.25 137.01,-2.81 199.86,-20.47 37.43,73.44 175.85,160.31 278.25,173.03 364.41,7.06 730.23,0 1094.64,0 64.97,-12.72 136.31,-78.4 125.71,-155.37 80.51,-0.71 197.03,-36.73 233.76,-71.34 31.07,25.43 88.97,45.91 115.11,40.26 l 6.36,64.27 c 1.41,60.73 67.79,128.53 129.23,132.77 h 410.32 c 109.46,1.41 245.05,-89.69 271.19,-183.62 244.34,72.03 535.31,-62.86 581.21,-269.07 29.67,-153.95 16.95,-354.52 -25.42,-401.84 -113.7,-286.02 -498.6,-502.831 -769.07,-433.62 -42.38,2.121 -99.57,27.54 -137.72,40.96 -19.06,9.19 -44.49,9.89 -51.55,1.41 -46.6,-33.191 -189.97,-54.378 -276.12,-45.902 -27.55,5.653 -58.63,14.133 -74.87,19.071 -12.71,6.363 -43.07,-1.418 -53.67,-13.418 -62.86,-5.653 -128.53,-9.18 -186.44,-5.653 -37.44,6.352 -99.59,33.192 -124.3,54.382 -24.02,18.36 -55.79,16.24 -72.74,-1.41 -48.73,-28.96 -135.59,-52.261 -165.26,-49.44 h -192.79 c -25.43,-5.649 -113.7,30.36 -176.56,71.33 -25.43,-27.54 -128.53,-63.549 -206.92,-71.33 h -152.55 c -45.9,2.82 -105.22,7.781 -118.64,9.878 h -305.09 c -146.89,-8.457 -334.74,17.662 -501.41,-9.878 -146.89,-7.059 -312.86,3.531 -423.74,115.11 -97.45,-67.09 -221.04,-107.329 -329.09,-115.11 h -182.912 c -83.336,7.781 -162.434,46.61 -240.82,57.21 -79.098,-60.031 -195.625,-60.031 -294.496,-57.21 -154.661,13.421 -268.36,148.3 -322.039,277.54 -13.4146,41.67 -19.77,105.24 -12.7075,126.42 -39.5469,37.43 -78.3907,120.76 -82.62894,161.73 -12.00781,50.13 -9.88672,147.59 0,216.8 24.71874,240.11 232.34344,431.51 436.44544,500.01 l 781.078,-4.94 c 21.89,-24.73 112.29,-14.84 179.38,20.47 30.37,12.01 111.58,12.01 162.43,0 125.71,-18.36 269.77,-115.11 288.14,-193.5"
         inkscape:connector-curvature="0" /><path
         id="path1082"
         style="opacity:1;vector-effect:none;fill:#fce00a;fill-opacity:1;fill-rule:nonzero;stroke:none;stroke-width:7.500006;stroke-linecap:butt;stroke-linejoin:bevel;stroke-miterlimit:4;stroke-dasharray:none;stroke-dashoffset:0;stroke-opacity:1"
         d="m 2814.81,1977.35 c -119.88,-26.08 -180.92,-209.22 -233.13,-337.14 -81.44,-199.58 -151.07,-375.53 -241.8,-384.1 l -242.66,0.41 c 77.69,46.6 197.75,237.99 240.82,382.06 57.21,120.76 72.04,302.26 228.82,336.87 l 247.95,1.9"
         inkscape:connector-curvature="0" /><path
         id="path1084"
         style="opacity:1;vector-effect:none;fill:#fce00a;fill-opacity:1;fill-rule:nonzero;stroke:none;stroke-width:7.500006;stroke-linecap:butt;stroke-linejoin:bevel;stroke-miterlimit:4;stroke-dasharray:none;stroke-dashoffset:0;stroke-opacity:1"
         d="m 2909.2,1609.94 c 47.36,7.45 63.55,24.89 86.17,-2.65 10,-8.24 9.89,-31.25 -1.42,-48.91 -11.3,-24.71 -47.31,-50.84 -75.57,-47.32 -34.08,4.18 -67.15,32.59 -31.59,111.31 24.92,63.54 111.09,253.48 218.74,339.97 v 7.06 h -182.91 c -180.35,-8.17 -215.23,-217.46 -271.89,-350.99 -64.18,-177.93 -120.25,-286.3 -233.05,-360.88 89.69,0 175.85,-13.41 264.13,0 21.18,-1.41 76.27,58.62 84.74,64.27 -6.98,-4.67 9.55,-35.29 12.83,-39.79 8.59,-11.8 18.67,-18.77 31.99,-23.59 33.53,-12.12 67.61,-11.03 102.78,-11.03 55.41,0 101.87,10.6 148.07,42.56 43.84,30.31 79.56,71.42 108.2,116.1 20.56,32.1 37.6,66.49 50.93,102.19 40.96,89.69 27.55,230.23 -28.94,277.55 -141.82,78.66 -249.97,-73.14 -260.02,-102.88 -1.37,-4.05 -21.55,-42.44 -23.19,-72.97"
         inkscape:connector-curvature="0" /><path
         id="path1086"
         style="opacity:1;vector-effect:none;fill:#fce00a;fill-opacity:1;fill-rule:nonzero;stroke:none;stroke-width:7.500006;stroke-linecap:butt;stroke-linejoin:bevel;stroke-miterlimit:4;stroke-dasharray:none;stroke-dashoffset:0;stroke-opacity:1"
         d="m 4279.26,1609.52 c -22.33,24.04 -64.17,4.99 -84.3,-9.37 -43.46,-30.98 -36.22,-66.23 -21.27,-81.18 13.05,-9.22 21.45,-4.72 37.11,-3.23 10.38,0.98 29.49,11.67 34.52,1.24 5.14,-10.68 -12.88,-45.02 -16.82,-55.31 -11.43,-29.95 -25.27,-60.71 -42.16,-87.98 -18.38,-29.71 -25.4,-40.95 -56.95,-76.56 -20,-22.58 -38.99,-34.67 -68.61,-42.32 -25.42,-8.47 -86.87,-8.47 -122.17,0 -86.87,28.25 -62.68,137.09 -60.74,176.55 14.12,221.06 288.84,451.99 460.46,372.19 10.58,-4.95 22.59,-26.84 24.01,-43.79 36.72,66.39 74.15,151.84 61.43,217.52 l 201.99,4.94 c 12,-1.41 24.71,-11.3 25.42,-19.77 10.86,-27.39 -24.72,-173.73 -96.75,-323.45 -28.25,-54.38 -35.67,-102.59 -28.96,-115.82 15.73,-22.89 33.2,7.06 54.38,1.41 -10.6,-102.41 -122.18,-233.05 -224.57,-269.07 -30.46,-10.71 -71.26,-10.29 -102.45,-3.16 -31.16,7.12 -43.41,23.55 -50.8,54.45 -11.8,49.37 37.2,139.82 73.83,218.18 19.91,42.56 14.68,72.38 3.4,84.53"
         inkscape:connector-curvature="0" /><path
         id="path1088"
         style="fill:#8a4d76;fill-opacity:1;fill-rule:nonzero;stroke:none"
         d="m 4066.43,926.418 148.3,-776.129 c -24,-110.8788 -149,-171.6171 -256.36,-131.3593 l -1272.6,729.5313 -1263.43,-733.7696 c -108.05,-48.0117 -236.58,26.8399 -256.35,148.3086 l 161.01,807.91 c 62.85,7.781 110.17,43.78 150.43,61.44 0,-9.88 24.01,-24.72 48.73,-29.65 l -148.31,-729.528 c -5.65,-29.672 13.42,-47.32 40.26,-33.902 l 1221.05,678.691 h 104.52 l 1216.81,-687.16 c 21.19,-0.711 42.38,4.238 44.5,33.89 l -132.07,663.848 193.51,-2.121"
         inkscape:connector-curvature="0" /><path
         id="path1090"
         style="opacity:1;vector-effect:none;fill:#fce00a;fill-opacity:1;fill-rule:nonzero;stroke:none;stroke-width:7.500006;stroke-linecap:butt;stroke-linejoin:bevel;stroke-miterlimit:4;stroke-dasharray:none;stroke-dashoffset:0;stroke-opacity:1"
         d="m 1814.89,1568.57 c -0.71,-36.73 33.67,-75.76 64.04,-75.76 42.37,-12 96.25,23.49 114.61,67.27 -4.75,-16.09 31.14,66.03 -26.16,66.03 -49.83,3.74 -112.04,-45.12 -102.16,-100.91 -74.29,83.4 14.67,187.85 79.53,239.23 33.87,25.45 141.86,70.27 211.99,32.35 67.85,-26.87 89.19,-78.34 88.45,-77.23 64.68,-185.08 -129.74,-421.5 -346.33,-464.69 -103.42,-8.76 -247.82,-11.87 -295.13,100.43 -48.73,178.67 120.76,399.01 360.87,449.86 -79.06,-65.55 -150.83,-115.06 -149.71,-236.58"
         inkscape:connector-curvature="0" /><path
         id="path1092"
         style="opacity:1;vector-effect:none;fill:#fce00a;fill-opacity:1;fill-rule:nonzero;stroke:none;stroke-width:7.500006;stroke-linecap:butt;stroke-linejoin:bevel;stroke-miterlimit:4;stroke-dasharray:none;stroke-dashoffset:0;stroke-opacity:1"
         d="m 1271.21,1732.22 c -67.09,-67.8 -36.01,-118.64 60.74,-102.4 -72.04,-60.74 -156.78,-39.55 -153.25,28.96 8.57,72.47 67.44,126.76 136.65,137.35 40.61,3.53 70.27,-5.29 81.57,-28.59 -41.67,10.58 -104.52,-7.08 -125.71,-35.32 z m -724.108,86.04 c -32.489,55.79 -106.872,47.31 -161.016,-0.94 -22.363,-22.36 -32.07,-52.99 -31.074,-72.51 -2.125,-48.73 64.265,-51.55 133.468,-4.24 35.075,22.73 18.84,10.83 47.086,41.44 -11.296,-79.1 -138.183,-177.03 -195.39,-109.23 -12.711,13.41 -17.656,53.67 -10.59,81.21 2.82,15.54 18.359,45.91 31.074,60.73 45.903,57.91 131.356,130.66 203.387,81.93 -1.41,-30.37 -9.887,-69.21 -16.945,-78.39 z m 1107.588,44.96 c -2.12,30.37 -21.89,73.46 -40.26,86.86 -102.14,77.14 -359.58,49.49 -470.34,-216.32 19.36,48.95 -78.86,-168.32 55.79,-174.92 46.61,-6.35 84.28,10.12 115.82,26.84 -26.12,-31.78 -60.73,-52.27 -98.16,-64.27 -105.23,-14.83 -124.06,-6.59 -137.01,47.55 -5.46,72.52 27.07,133.59 40.02,168.32 3.35,5.7 89.57,151.54 79.33,210.68 1.41,18.36 -19.06,33.21 -40.25,31.09 h -213.985 c 7.058,-33.19 5.648,-79.82 -1.411,-93.94 l -138.418,-300.85 c -43.082,-76.98 -98.875,-94.63 -111.586,-34.61 l 161.02,353.83 c 3.527,14.12 0.707,37.42 -4.238,44.48 -2.824,12.02 -24.719,27.55 -43.789,31.09 h -264.828 c -81.922,4.93 -150.426,-61.45 -196.332,-125.71 -82.391,-106.64 -81.215,-210.23 -71.329,-223.87 9.18,-79.1 110.172,-102.4 165.965,-74.15 v -10.6 c -31.781,-46.62 -53.679,-108.76 -62.855,-149.02 -6.356,-14.82 -6.356,-48.72 0,-67.09 5.648,-31.78 40.258,-57.2 62.855,-72.03 16.242,-4.94 70.617,-4.94 108.754,0 88.277,24.01 198.445,127.12 220.344,206.92 1.414,-91.8 99.578,-195.62 196.324,-206.92 29.664,-2.82 120.769,-2.82 182.919,0 295.9,47.31 548.02,350.99 505.65,606.64"
         inkscape:connector-curvature="0" /><path
         id="path1094"
         style="opacity:1;vector-effect:none;fill:#fce00a;fill-opacity:1;fill-rule:nonzero;stroke:none;stroke-width:7.500006;stroke-linecap:butt;stroke-linejoin:bevel;stroke-miterlimit:4;stroke-dasharray:none;stroke-dashoffset:0;stroke-opacity:1"
         d="m 3456.25,1568.95 c -0.72,-36.73 33.67,-75.76 64.03,-75.76 42.37,-12.01 96.25,23.49 114.62,67.27 -4.75,-16.09 31.14,66.03 -26.17,66.03 -49.83,3.74 -112.05,-45.12 -102.15,-100.91 -74.3,83.4 14.66,187.85 79.53,239.23 33.86,25.45 141.85,70.27 211.99,32.35 67.84,-26.88 89.19,-78.34 88.44,-77.23 64.68,-185.09 -129.73,-421.5 -346.33,-464.69 -103.42,-8.76 -247.81,-11.86 -295.13,100.43 -48.73,178.67 120.76,399.01 360.87,449.86 -79.06,-65.55 -150.83,-115.07 -149.7,-236.58"
         inkscape:connector-curvature="0" /><path
         id="path1096"
         style="opacity:1;vector-effect:none;fill:#fce00a;fill-opacity:1;fill-rule:nonzero;stroke:none;stroke-width:7.500006;stroke-linecap:butt;stroke-linejoin:bevel;stroke-miterlimit:4;stroke-dasharray:none;stroke-dashoffset:0;stroke-opacity:1"
         d="m 4787.67,1569.33 c -0.7,-36.73 33.67,-75.76 64.04,-75.76 42.38,-12.01 96.25,23.48 114.61,67.27 -4.74,-16.09 31.16,66.03 -26.16,66.03 -49.83,3.73 -112.04,-45.12 -102.16,-100.91 -74.28,83.39 14.67,187.85 79.53,239.23 33.87,25.44 141.87,70.27 212,32.36 67.85,-26.89 89.19,-78.35 88.44,-77.25 64.68,-185.08 -129.73,-421.49 -346.32,-464.68 -103.42,-8.76 -247.82,-11.86 -295.14,100.43 -48.73,178.67 120.76,399.01 360.88,449.86 -79.06,-65.56 -150.83,-115.06 -149.72,-236.58"
         inkscape:connector-curvature="0" /></g><g
       transform="matrix(0.125,0,0,-0.125,11.2504,622.411)"
       id="g1651"
       style="display:inline;fill:none;fill-opacity:1;stroke:#d9be27;stroke-width:37.500031;stroke-linejoin:bevel;stroke-miterlimit:4;stroke-dasharray:none;stroke-opacity:1;filter:url(#filter1220)"><path
         id="path1635"
         style="fill:none;fill-opacity:1;fill-rule:nonzero;stroke:#8a4d76;stroke-width:37.500031;stroke-linejoin:bevel;stroke-miterlimit:4;stroke-dasharray:none;stroke-opacity:1"
         d="m 2814.81,1977.35 c -119.88,-26.08 -180.92,-209.22 -233.13,-337.14 -81.44,-199.58 -151.07,-375.53 -241.8,-384.1 l -242.66,0.41 c 77.69,46.6 197.75,237.99 240.82,382.06 57.21,120.76 72.04,302.26 228.82,336.87 l 247.95,1.9"
         inkscape:connector-curvature="0" /><path
         id="path1637"
         style="fill:none;fill-opacity:1;fill-rule:nonzero;stroke:#8a4d76;stroke-width:37.500031;stroke-linejoin:bevel;stroke-miterlimit:4;stroke-dasharray:none;stroke-opacity:1"
         d="m 2909.2,1609.94 c 47.36,7.45 63.55,24.89 86.17,-2.65 10,-8.24 9.89,-31.25 -1.42,-48.91 -11.3,-24.71 -47.31,-50.84 -75.57,-47.32 -34.08,4.18 -67.15,32.59 -31.59,111.31 24.92,63.54 111.09,253.48 218.74,339.97 v 7.06 h -182.91 c -180.35,-8.17 -215.23,-217.46 -271.89,-350.99 -64.18,-177.93 -120.25,-286.3 -233.05,-360.88 89.69,0 175.85,-13.41 264.13,0 21.18,-1.41 76.27,58.62 84.74,64.27 -6.98,-4.67 9.55,-35.29 12.83,-39.79 8.59,-11.8 18.67,-18.77 31.99,-23.59 33.53,-12.12 67.61,-11.03 102.78,-11.03 55.41,0 101.87,10.6 148.07,42.56 43.84,30.31 79.56,71.42 108.2,116.1 20.56,32.1 37.6,66.49 50.93,102.19 40.96,89.69 27.55,230.23 -28.94,277.55 -141.82,78.66 -249.97,-73.14 -260.02,-102.88 -1.37,-4.05 -21.55,-42.44 -23.19,-72.97"
         inkscape:connector-curvature="0" /><path
         id="path1639"
         style="fill:none;fill-opacity:1;fill-rule:nonzero;stroke:#8a4d76;stroke-width:37.500031;stroke-linejoin:bevel;stroke-miterlimit:4;stroke-dasharray:none;stroke-opacity:1"
         d="m 4279.26,1609.52 c -22.33,24.04 -64.17,4.99 -84.3,-9.37 -43.46,-30.98 -36.22,-66.23 -21.27,-81.18 13.05,-9.22 21.45,-4.72 37.11,-3.23 10.38,0.98 29.49,11.67 34.52,1.24 5.14,-10.68 -12.88,-45.02 -16.82,-55.31 -11.43,-29.95 -25.27,-60.71 -42.16,-87.98 -18.38,-29.71 -25.4,-40.95 -56.95,-76.56 -20,-22.58 -38.99,-34.67 -68.61,-42.32 -25.42,-8.47 -86.87,-8.47 -122.17,0 -86.87,28.25 -62.68,137.09 -60.74,176.55 14.12,221.06 288.84,451.99 460.46,372.19 10.58,-4.95 22.59,-26.84 24.01,-43.79 36.72,66.39 74.15,151.84 61.43,217.52 l 201.99,4.94 c 12,-1.41 24.71,-11.3 25.42,-19.77 10.86,-27.39 -24.72,-173.73 -96.75,-323.45 -28.25,-54.38 -35.67,-102.59 -28.96,-115.82 15.73,-22.89 33.2,7.06 54.38,1.41 -10.6,-102.41 -122.18,-233.05 -224.57,-269.07 -30.46,-10.71 -71.26,-10.29 -102.45,-3.16 -31.16,7.12 -43.41,23.55 -50.8,54.45 -11.8,49.37 37.2,139.82 73.83,218.18 19.91,42.56 14.68,72.38 3.4,84.53"
         inkscape:connector-curvature="0" /><path
         id="path1643"
         style="fill:none;fill-opacity:1;fill-rule:nonzero;stroke:#8a4d76;stroke-width:37.500031;stroke-linejoin:bevel;stroke-miterlimit:4;stroke-dasharray:none;stroke-opacity:1"
         d="m 1814.89,1568.57 c -0.71,-36.73 33.67,-75.76 64.04,-75.76 42.37,-12 96.25,23.49 114.61,67.27 -4.75,-16.09 31.14,66.03 -26.16,66.03 -49.83,3.74 -112.04,-45.12 -102.16,-100.91 -74.29,83.4 14.67,187.85 79.53,239.23 33.87,25.45 141.86,70.27 211.99,32.35 67.85,-26.87 89.19,-78.34 88.45,-77.23 64.68,-185.08 -129.74,-421.5 -346.33,-464.69 -103.42,-8.76 -247.82,-11.87 -295.13,100.43 -48.73,178.67 120.76,399.01 360.87,449.86 -79.06,-65.55 -150.83,-115.06 -149.71,-236.58"
         inkscape:connector-curvature="0" /><path
         id="path1645"
         style="fill:none;fill-opacity:1;fill-rule:nonzero;stroke:#8a4d76;stroke-width:37.500031;stroke-linejoin:bevel;stroke-miterlimit:4;stroke-dasharray:none;stroke-opacity:1"
         d="m 1271.21,1732.22 c -67.09,-67.8 -36.01,-118.64 60.74,-102.4 -72.04,-60.74 -156.78,-39.55 -153.25,28.96 8.57,72.47 67.44,126.76 136.65,137.35 40.61,3.53 70.27,-5.29 81.57,-28.59 -41.67,10.58 -104.52,-7.08 -125.71,-35.32 z m -724.108,86.04 c -32.489,55.79 -106.872,47.31 -161.016,-0.94 -22.363,-22.36 -32.07,-52.99 -31.074,-72.51 -2.125,-48.73 64.265,-51.55 133.468,-4.24 35.075,22.73 18.84,10.83 47.086,41.44 -11.296,-79.1 -138.183,-177.03 -195.39,-109.23 -12.711,13.41 -17.656,53.67 -10.59,81.21 2.82,15.54 18.359,45.91 31.074,60.73 45.903,57.91 131.356,130.66 203.387,81.93 -1.41,-30.37 -9.887,-69.21 -16.945,-78.39 z m 1107.588,44.96 c -2.12,30.37 -21.89,73.46 -40.26,86.86 -102.14,77.14 -359.58,49.49 -470.34,-216.32 19.36,48.95 -78.86,-168.32 55.79,-174.92 46.61,-6.35 84.28,10.12 115.82,26.84 -26.12,-31.78 -60.73,-52.27 -98.16,-64.27 -105.23,-14.83 -124.06,-6.59 -137.01,47.55 -5.46,72.52 27.07,133.59 40.02,168.32 3.35,5.7 89.57,151.54 79.33,210.68 1.41,18.36 -19.06,33.21 -40.25,31.09 h -213.985 c 7.058,-33.19 5.648,-79.82 -1.411,-93.94 l -138.418,-300.85 c -43.082,-76.98 -98.875,-94.63 -111.586,-34.61 l 161.02,353.83 c 3.527,14.12 0.707,37.42 -4.238,44.48 -2.824,12.02 -24.719,27.55 -43.789,31.09 h -264.828 c -81.922,4.93 -150.426,-61.45 -196.332,-125.71 -82.391,-106.64 -81.215,-210.23 -71.329,-223.87 9.18,-79.1 110.172,-102.4 165.965,-74.15 v -10.6 c -31.781,-46.62 -53.679,-108.76 -62.855,-149.02 -6.356,-14.82 -6.356,-48.72 0,-67.09 5.648,-31.78 40.258,-57.2 62.855,-72.03 16.242,-4.94 70.617,-4.94 108.754,0 88.277,24.01 198.445,127.12 220.344,206.92 1.414,-91.8 99.578,-195.62 196.324,-206.92 29.664,-2.82 120.769,-2.82 182.919,0 295.9,47.31 548.02,350.99 505.65,606.64"
         inkscape:connector-curvature="0" /><path
         id="path1647"
         style="fill:none;fill-opacity:1;fill-rule:nonzero;stroke:#8a4d76;stroke-width:37.500031;stroke-linejoin:bevel;stroke-miterlimit:4;stroke-dasharray:none;stroke-opacity:1"
         d="m 3456.25,1568.95 c -0.72,-36.73 33.67,-75.76 64.03,-75.76 42.37,-12.01 96.25,23.49 114.62,67.27 -4.75,-16.09 31.14,66.03 -26.17,66.03 -49.83,3.74 -112.05,-45.12 -102.15,-100.91 -74.3,83.4 14.66,187.85 79.53,239.23 33.86,25.45 141.85,70.27 211.99,32.35 67.84,-26.88 89.19,-78.34 88.44,-77.23 64.68,-185.09 -129.73,-421.5 -346.33,-464.69 -103.42,-8.76 -247.81,-11.86 -295.13,100.43 -48.73,178.67 120.76,399.01 360.87,449.86 -79.06,-65.55 -150.83,-115.07 -149.7,-236.58"
         inkscape:connector-curvature="0" /><path
         id="path1649"
         style="fill:none;fill-opacity:1;fill-rule:nonzero;stroke:#8a4d76;stroke-width:37.500031;stroke-linejoin:bevel;stroke-miterlimit:4;stroke-dasharray:none;stroke-opacity:1"
         d="m 4787.67,1569.33 c -0.7,-36.73 33.67,-75.76 64.04,-75.76 42.38,-12.01 96.25,23.48 114.61,67.27 -4.74,-16.09 31.16,66.03 -26.16,66.03 -49.83,3.73 -112.04,-45.12 -102.16,-100.91 -74.28,83.39 14.67,187.85 79.53,239.23 33.87,25.44 141.87,70.27 212,32.36 67.85,-26.89 89.19,-78.35 88.44,-77.25 64.68,-185.08 -129.73,-421.49 -346.32,-464.68 -103.42,-8.76 -247.82,-11.86 -295.14,100.43 -48.73,178.67 120.76,399.01 360.88,449.86 -79.06,-65.56 -150.83,-115.06 -149.72,-236.58"
         inkscape:connector-curvature="0" /></g><g
       transform="matrix(0.125,0,0,-0.125,11.2504,622.411)"
       id="g1244"
       style="display:inline;fill:none;fill-opacity:1;stroke:#d9ce27;stroke-width:7.500006;stroke-linejoin:bevel;stroke-miterlimit:4;stroke-dasharray:none;stroke-opacity:1"><path
         id="path1224"
         style="fill:none;fill-opacity:1;fill-rule:nonzero;stroke:#d9ce27;stroke-width:7.500006;stroke-linejoin:bevel;stroke-miterlimit:4;stroke-dasharray:none;stroke-opacity:1"
         d="m 2759.36,4475.46 c 54.9,-28.18 97.11,-88.36 117.79,-145.06 l 555.09,-1235.88 c 6.36,-14.13 18.36,-24.01 27.55,-27.55 l 1463.99,-170.2 c 121.47,-20.47 169.5,-142.65 95.34,-244.35 l -339.69,-333.33 h -277.55 l 391.25,360.17 c 27.54,27.54 19.78,56.5 -16.24,57.2 l -1393.38,160.31 c -40.24,12.01 -99.57,75.57 -114.4,129.24 l -533.2,1167.38 c -20.48,65.68 -65.68,65.68 -95.34,-1.41 l -523.31,-1162.44 c -14.13,-64.26 -82.63,-131.36 -137.01,-134.89 l -1358.055,-169.49 c -36.019,7.77 -48.023,-12 -24.011,-40.95 l 399.011,-371.48 -289.543,-8.47 -355.937,355.93 c -36.727,98.17 13.418,216.11 94.633,231.64 l 1484.472,182.91 555.8,1245.07 c 28.53,57.16 74.62,127.25 134.15,154.13 48.88,22.08 90.32,26.31 138.59,1.52"
         inkscape:connector-curvature="0" /><path
         id="path1226"
         style="fill:none;fill-opacity:1;fill-rule:nonzero;stroke:#d9ce27;stroke-width:7.500006;stroke-linejoin:bevel;stroke-miterlimit:4;stroke-dasharray:none;stroke-opacity:1"
         d="m 2053.12,1931.09 c -88.2,-6.05 -210.18,-57.77 -294.34,-25.85 -6.76,13.53 -160.68,316.44 -433.69,156.78 -29.27,-17.12 -82.62,-12 -98.16,26.83 0,0 -728.649,0 -728.825,0 -49.156,0 -108.519,-40.69 -147.531,-67.56 -114.926,-79.19 -180.91,-218.67 -185.98,-356.83 -1.61,-43.89 5.597,-85.38 24.855,-125.01 16.699,-34.39 44.93,-64.21 54.781,-101.75 9.778,-37.27 -3.64,-75.95 2.317,-113.63 4.574,-28.96 18.363,-70.63 36.5,-95.23 23.391,-31.7 59.605,-51.66 96.637,-65.89 55.546,-21.35 89.863,-35.79 147.652,-20.81 64.168,16.65 118.75,28.78 174.164,68.88 2.121,4.24 6.355,2.82 10.594,3.54 v 6.34 c 2.121,4.25 6.351,3.54 9.886,3.54 12.711,16.95 50.852,16.95 71.333,0 202.683,-136.3 485.167,-99.57 670.907,47.31 20.48,5.66 47.32,5.66 67.8,0 79.09,-104.51 227.4,-139.82 355.93,-128.52 64.97,5.64 131.36,31.78 195.62,7.76 191.39,-0.7 398.31,1.41 595.35,0 47.32,19.78 136.3,16.25 178.67,-6.36 102.41,-3.52 216.11,14.84 311.44,86.87 17.65,4.94 40.97,4.94 57.91,0 133.48,-132.76 356.64,-99.57 512.01,-16.94 40.25,26.12 94.64,22.59 108.06,-8.48 61.43,-71.33 179.37,-74.86 254.24,-45.91 36.71,4.95 79.09,4.95 115.82,0 91.09,-43.78 213.28,-6.36 298.02,54.39 7.77,16.24 36.02,10.59 54.38,6.34 72.74,-76.97 186.43,-79.79 284.61,-77.67 209.03,7.06 374.29,185.03 478.1,359.46 21.9,54.39 31.78,162.43 19.78,216.82 -25.43,117.22 -147.6,209.73 -270.49,216.79 -49.43,7.78 -193.5,-12.7 -297.31,-45.19 7.06,42.37 2.11,98.16 -1.42,116.53 -4.94,31.07 -67.79,72.03 -125,81.21 -115.81,-2.82 -232.34,8.48 -346.05,-9.89 -27.53,-45.9 11.3,-93.92 20.48,-139.12 -134.88,-4.24 -300.84,-57.21 -325.55,-103.81 -10.6,-5.65 -33.2,-4.95 -50.85,-1.41 -50.15,81.92 -217.52,117.93 -335.46,71.32 -26.14,-6.35 -56.5,-2.12 -84.75,-3.53 -49.43,-15.54 -106.64,-46.6 -156.07,-77.69 -50.15,-27.54 -96.75,38.15 -102.41,60.03 -4.23,31.79 -2.82,24.72 31.78,61.45 -21.19,-9.9 44.49,26.13 108.06,61.44 24,11.29 86.86,51.56 125,80.5 h -977.41 c -132.77,-15.53 -210.87,-138.17 -280.78,-235.64 -45.2,61.44 -146.21,83.52 -230.61,78.59 z m -197.42,150.71 c 52.96,7.77 146.18,17.66 186.44,20.47 32.48,4.25 137.01,-2.81 199.86,-20.47 37.43,73.44 175.85,160.31 278.25,173.03 364.41,7.06 730.23,0 1094.64,0 64.97,-12.72 136.31,-78.4 125.71,-155.37 80.51,-0.71 197.03,-36.73 233.76,-71.34 31.07,25.43 88.97,45.91 115.11,40.26 l 6.36,64.27 c 1.41,60.73 67.79,128.53 129.23,132.77 h 410.32 c 109.46,1.41 245.05,-89.69 271.19,-183.62 244.34,72.03 535.31,-62.86 581.21,-269.07 29.67,-153.95 16.95,-354.52 -25.42,-401.84 -113.7,-286.02 -498.6,-502.831 -769.07,-433.62 -42.38,2.121 -99.57,27.54 -137.72,40.96 -19.06,9.19 -44.49,9.89 -51.55,1.41 -46.6,-33.191 -189.97,-54.378 -276.12,-45.902 -27.55,5.653 -58.63,14.133 -74.87,19.071 -12.71,6.363 -43.07,-1.418 -53.67,-13.418 -62.86,-5.653 -128.53,-9.18 -186.44,-5.653 -37.44,6.352 -99.59,33.192 -124.3,54.382 -24.02,18.36 -55.79,16.24 -72.74,-1.41 -48.73,-28.96 -135.59,-52.261 -165.26,-49.44 h -192.79 c -25.43,-5.649 -113.7,30.36 -176.56,71.33 -25.43,-27.54 -128.53,-63.549 -206.92,-71.33 h -152.55 c -45.9,2.82 -105.22,7.781 -118.64,9.878 h -305.09 c -146.89,-8.457 -334.74,17.662 -501.41,-9.878 -146.89,-7.059 -312.86,3.531 -423.74,115.11 -97.45,-67.09 -221.04,-107.329 -329.09,-115.11 h -182.912 c -83.336,7.781 -162.434,46.61 -240.82,57.21 -79.098,-60.031 -195.625,-60.031 -294.496,-57.21 -154.661,13.421 -268.36,148.3 -322.039,277.54 -13.4146,41.67 -19.77,105.24 -12.7075,126.42 -39.5469,37.43 -78.3907,120.76 -82.62894,161.73 -12.00781,50.13 -9.88672,147.59 0,216.8 24.71874,240.11 232.34344,431.51 436.44544,500.01 l 781.078,-4.94 c 21.89,-24.73 112.29,-14.84 179.38,20.47 30.37,12.01 111.58,12.01 162.43,0 125.71,-18.36 269.77,-115.11 288.14,-193.5"
         inkscape:connector-curvature="0" /><path
         id="path1228"
         style="fill:none;fill-opacity:1;fill-rule:nonzero;stroke:#d9ce27;stroke-width:7.500006;stroke-linejoin:bevel;stroke-miterlimit:4;stroke-dasharray:none;stroke-opacity:1"
         d="m 2814.81,1977.35 c -119.88,-26.08 -180.92,-209.22 -233.13,-337.14 -81.44,-199.58 -151.07,-375.53 -241.8,-384.1 l -242.66,0.41 c 77.69,46.6 197.75,237.99 240.82,382.06 57.21,120.76 72.04,302.26 228.82,336.87 l 247.95,1.9"
         inkscape:connector-curvature="0" /><path
         id="path1230"
         style="fill:none;fill-opacity:1;fill-rule:nonzero;stroke:#d9ce27;stroke-width:7.500006;stroke-linejoin:bevel;stroke-miterlimit:4;stroke-dasharray:none;stroke-opacity:1"
         d="m 2909.2,1609.94 c 47.36,7.45 63.55,24.89 86.17,-2.65 10,-8.24 9.89,-31.25 -1.42,-48.91 -11.3,-24.71 -47.31,-50.84 -75.57,-47.32 -34.08,4.18 -67.15,32.59 -31.59,111.31 24.92,63.54 111.09,253.48 218.74,339.97 v 7.06 h -182.91 c -180.35,-8.17 -215.23,-217.46 -271.89,-350.99 -64.18,-177.93 -120.25,-286.3 -233.05,-360.88 89.69,0 175.85,-13.41 264.13,0 21.18,-1.41 76.27,58.62 84.74,64.27 -6.98,-4.67 9.55,-35.29 12.83,-39.79 8.59,-11.8 18.67,-18.77 31.99,-23.59 33.53,-12.12 67.61,-11.03 102.78,-11.03 55.41,0 101.87,10.6 148.07,42.56 43.84,30.31 79.56,71.42 108.2,116.1 20.56,32.1 37.6,66.49 50.93,102.19 40.96,89.69 27.55,230.23 -28.94,277.55 -141.82,78.66 -249.97,-73.14 -260.02,-102.88 -1.37,-4.05 -21.55,-42.44 -23.19,-72.97"
         inkscape:connector-curvature="0" /><path
         id="path1232"
         style="fill:none;fill-opacity:1;fill-rule:nonzero;stroke:#d9ce27;stroke-width:7.500006;stroke-linejoin:bevel;stroke-miterlimit:4;stroke-dasharray:none;stroke-opacity:1"
         d="m 4279.26,1609.52 c -22.33,24.04 -64.17,4.99 -84.3,-9.37 -43.46,-30.98 -36.22,-66.23 -21.27,-81.18 13.05,-9.22 21.45,-4.72 37.11,-3.23 10.38,0.98 29.49,11.67 34.52,1.24 5.14,-10.68 -12.88,-45.02 -16.82,-55.31 -11.43,-29.95 -25.27,-60.71 -42.16,-87.98 -18.38,-29.71 -25.4,-40.95 -56.95,-76.56 -20,-22.58 -38.99,-34.67 -68.61,-42.32 -25.42,-8.47 -86.87,-8.47 -122.17,0 -86.87,28.25 -62.68,137.09 -60.74,176.55 14.12,221.06 288.84,451.99 460.46,372.19 10.58,-4.95 22.59,-26.84 24.01,-43.79 36.72,66.39 74.15,151.84 61.43,217.52 l 201.99,4.94 c 12,-1.41 24.71,-11.3 25.42,-19.77 10.86,-27.39 -24.72,-173.73 -96.75,-323.45 -28.25,-54.38 -35.67,-102.59 -28.96,-115.82 15.73,-22.89 33.2,7.06 54.38,1.41 -10.6,-102.41 -122.18,-233.05 -224.57,-269.07 -30.46,-10.71 -71.26,-10.29 -102.45,-3.16 -31.16,7.12 -43.41,23.55 -50.8,54.45 -11.8,49.37 37.2,139.82 73.83,218.18 19.91,42.56 14.68,72.38 3.4,84.53"
         inkscape:connector-curvature="0" /><path
         id="path1234"
         style="fill:none;fill-opacity:1;fill-rule:nonzero;stroke:#d9ce27;stroke-width:7.500006;stroke-linejoin:bevel;stroke-miterlimit:4;stroke-dasharray:none;stroke-opacity:1"
         d="m 4066.43,926.418 148.3,-776.129 c -24,-110.8788 -149,-171.6171 -256.36,-131.3593 l -1272.6,729.5313 -1263.43,-733.7696 c -108.05,-48.0117 -236.58,26.8399 -256.35,148.3086 l 161.01,807.91 c 62.85,7.781 110.17,43.78 150.43,61.44 0,-9.88 24.01,-24.72 48.73,-29.65 l -148.31,-729.528 c -5.65,-29.672 13.42,-47.32 40.26,-33.902 l 1221.05,678.691 h 104.52 l 1216.81,-687.16 c 21.19,-0.711 42.38,4.238 44.5,33.89 l -132.07,663.848 193.51,-2.121"
         inkscape:connector-curvature="0" /><path
         id="path1236"
         style="fill:none;fill-opacity:1;fill-rule:nonzero;stroke:#d9ce27;stroke-width:7.500006;stroke-linejoin:bevel;stroke-miterlimit:4;stroke-dasharray:none;stroke-opacity:1"
         d="m 1814.89,1568.57 c -0.71,-36.73 33.67,-75.76 64.04,-75.76 42.37,-12 96.25,23.49 114.61,67.27 -4.75,-16.09 31.14,66.03 -26.16,66.03 -49.83,3.74 -112.04,-45.12 -102.16,-100.91 -74.29,83.4 14.67,187.85 79.53,239.23 33.87,25.45 141.86,70.27 211.99,32.35 67.85,-26.87 89.19,-78.34 88.45,-77.23 64.68,-185.08 -129.74,-421.5 -346.33,-464.69 -103.42,-8.76 -247.82,-11.87 -295.13,100.43 -48.73,178.67 120.76,399.01 360.87,449.86 -79.06,-65.55 -150.83,-115.06 -149.71,-236.58"
         inkscape:connector-curvature="0" /><path
         id="path1238"
         style="fill:none;fill-opacity:1;fill-rule:nonzero;stroke:#d9ce27;stroke-width:7.500006;stroke-linejoin:bevel;stroke-miterlimit:4;stroke-dasharray:none;stroke-opacity:1"
         d="m 1271.21,1732.22 c -67.09,-67.8 -36.01,-118.64 60.74,-102.4 -72.04,-60.74 -156.78,-39.55 -153.25,28.96 8.57,72.47 67.44,126.76 136.65,137.35 40.61,3.53 70.27,-5.29 81.57,-28.59 -41.67,10.58 -104.52,-7.08 -125.71,-35.32 z m -724.108,86.04 c -32.489,55.79 -106.872,47.31 -161.016,-0.94 -22.363,-22.36 -32.07,-52.99 -31.074,-72.51 -2.125,-48.73 64.265,-51.55 133.468,-4.24 35.075,22.73 18.84,10.83 47.086,41.44 -11.296,-79.1 -138.183,-177.03 -195.39,-109.23 -12.711,13.41 -17.656,53.67 -10.59,81.21 2.82,15.54 18.359,45.91 31.074,60.73 45.903,57.91 131.356,130.66 203.387,81.93 -1.41,-30.37 -9.887,-69.21 -16.945,-78.39 z m 1107.588,44.96 c -2.12,30.37 -21.89,73.46 -40.26,86.86 -102.14,77.14 -359.58,49.49 -470.34,-216.32 19.36,48.95 -78.86,-168.32 55.79,-174.92 46.61,-6.35 84.28,10.12 115.82,26.84 -26.12,-31.78 -60.73,-52.27 -98.16,-64.27 -105.23,-14.83 -124.06,-6.59 -137.01,47.55 -5.46,72.52 27.07,133.59 40.02,168.32 3.35,5.7 89.57,151.54 79.33,210.68 1.41,18.36 -19.06,33.21 -40.25,31.09 h -213.985 c 7.058,-33.19 5.648,-79.82 -1.411,-93.94 l -138.418,-300.85 c -43.082,-76.98 -98.875,-94.63 -111.586,-34.61 l 161.02,353.83 c 3.527,14.12 0.707,37.42 -4.238,44.48 -2.824,12.02 -24.719,27.55 -43.789,31.09 h -264.828 c -81.922,4.93 -150.426,-61.45 -196.332,-125.71 -82.391,-106.64 -81.215,-210.23 -71.329,-223.87 9.18,-79.1 110.172,-102.4 165.965,-74.15 v -10.6 c -31.781,-46.62 -53.679,-108.76 -62.855,-149.02 -6.356,-14.82 -6.356,-48.72 0,-67.09 5.648,-31.78 40.258,-57.2 62.855,-72.03 16.242,-4.94 70.617,-4.94 108.754,0 88.277,24.01 198.445,127.12 220.344,206.92 1.414,-91.8 99.578,-195.62 196.324,-206.92 29.664,-2.82 120.769,-2.82 182.919,0 295.9,47.31 548.02,350.99 505.65,606.64"
         inkscape:connector-curvature="0" /><path
         id="path1240"
         style="fill:none;fill-opacity:1;fill-rule:nonzero;stroke:#d9ce27;stroke-width:7.500006;stroke-linejoin:bevel;stroke-miterlimit:4;stroke-dasharray:none;stroke-opacity:1"
         d="m 3456.25,1568.95 c -0.72,-36.73 33.67,-75.76 64.03,-75.76 42.37,-12.01 96.25,23.49 114.62,67.27 -4.75,-16.09 31.14,66.03 -26.17,66.03 -49.83,3.74 -112.05,-45.12 -102.15,-100.91 -74.3,83.4 14.66,187.85 79.53,239.23 33.86,25.45 141.85,70.27 211.99,32.35 67.84,-26.88 89.19,-78.34 88.44,-77.23 64.68,-185.09 -129.73,-421.5 -346.33,-464.69 -103.42,-8.76 -247.81,-11.86 -295.13,100.43 -48.73,178.67 120.76,399.01 360.87,449.86 -79.06,-65.55 -150.83,-115.07 -149.7,-236.58"
         inkscape:connector-curvature="0" /><path
         id="path1242"
         style="fill:none;fill-opacity:1;fill-rule:nonzero;stroke:#d9ce27;stroke-width:7.500006;stroke-linejoin:bevel;stroke-miterlimit:4;stroke-dasharray:none;stroke-opacity:1"
         d="m 4787.67,1569.33 c -0.7,-36.73 33.67,-75.76 64.04,-75.76 42.38,-12.01 96.25,23.48 114.61,67.27 -4.74,-16.09 31.16,66.03 -26.16,66.03 -49.83,3.73 -112.04,-45.12 -102.16,-100.91 -74.28,83.39 14.67,187.85 79.53,239.23 33.87,25.44 141.87,70.27 212,32.36 67.85,-26.89 89.19,-78.35 88.44,-77.25 64.68,-185.08 -129.73,-421.49 -346.32,-464.68 -103.42,-8.76 -247.82,-11.86 -295.14,100.43 -48.73,178.67 120.76,399.01 360.88,449.86 -79.06,-65.56 -150.83,-115.06 -149.72,-236.58"
         inkscape:connector-curvature="0" /></g></g></svg>