<svg xmlns="http://www.w3.org/2000/svg" viewBox="0 0 238.125 238.125" height="900" width="900"><path d="M119.218 21.206l32.19 65.222 71.976 10.46-52.083 50.768 12.295 71.686-64.379-33.845-64.378 33.845 12.295-71.686-52.083-50.769 71.977-10.459z" fill="none" stroke="#ff3e00" stroke-width="13.023" paint-order="fill markers stroke"/><g style="line-height:1.25"><path d="M182.887 151.923q0 7.845-2.997 14.808-2.908 6.876-8.11 12.076-5.112 5.113-12.075 8.11-6.876 2.909-14.72 2.909-7.053 0-13.575-2.468-6.435-2.468-11.636-7.228-5.2 4.76-11.723 7.228-6.523 2.468-13.575 2.468-7.845 0-14.809-2.909-6.875-2.997-12.076-8.11-5.112-5.2-8.11-12.076-2.908-6.963-2.908-14.808V61.66H81.87v90.263q0 2.644.97 5.024.97 2.292 2.644 4.055 1.763 1.675 4.055 2.644 2.292.97 4.936.97t4.936-.97q2.292-.97 3.967-2.644 1.763-1.763 2.732-4.055.97-2.38.97-5.024V61.66h25.298v90.263q0 2.644.97 5.024.97 2.292 2.644 4.055 1.763 1.675 4.055 2.644 2.292.97 4.936.97 2.645 0 4.936-.97 2.292-.97 3.967-2.644 1.763-1.763 2.733-4.055 1.057-2.38 1.057-5.024V61.66h25.21z" style="-inkscape-font-specification:Righteous" font-size="57.242" font-family="Righteous" aria-label="Wolbodo" font-weight="400" letter-spacing="0" word-spacing="0" fill="white" stroke-width=".298"/></g></svg>